<?xml version="1.0" encoding="utf-8"?>
<svg xmlns="http://www.w3.org/2000/svg" height="256" width="256" viewBox="0 0 256 256">
  <g>
    <path id="path1" transform="rotate(0,128,128) translate(59,69.78125) scale(4.3125,4.3125)  " fill="#AE4BD5" d="M17.203966,12.759007L21.435949,17.008007 17.201967,21.242006 15.787973,19.828007 17.605335,18.009993 10.561982,18.009993 10.561982,16.009993 17.618811,16.009993 15.785973,14.170007z M2,9.0000019L2,25 30,25 30,9.0000019z M13.498982,3.0000048C14.326982,3.0000048 14.998982,3.6720047 14.998982,4.5000048 14.998982,5.3280048 14.326982,6.0000048 13.498982,6.0000048 12.670982,6.0000048 11.998982,5.3280048 11.998982,4.5000048 11.998982,3.6720047 12.670982,3.0000048 13.498982,3.0000048z M9.4989824,3.0000048C10.326982,3.0000048 10.998982,3.6720047 10.998982,4.5000048 10.998982,5.3280048 10.326982,6.0000048 9.4989824,6.0000048 8.6709824,6.0000048 7.9989824,5.3280048 7.9989824,4.5000048 7.9989824,3.6720047 8.6709824,3.0000048 9.4989824,3.0000048z M5.4989824,3.0000048C6.3269825,3.0000048 6.9989824,3.6720047 6.9989824,4.5000048 6.9989824,5.3280048 6.3269825,6.0000048 5.4989824,6.0000048 4.6709824,6.0000048 3.9989824,5.3280048 3.9989824,4.5000048 3.9989824,3.6720047 4.6709824,3.0000048 5.4989824,3.0000048z M2,2L2,7.0000014 30,7.0000014 30,2z M0,0L32,0 32,27 0,27z" />
  </g>
</svg>

