<?xml version="1.0" encoding="UTF-8" standalone="no"?>
<!-- Created with Inkscape (http://www.inkscape.org/) -->

<svg
   version="1.1"
   id="svg1"
   width="2048"
   height="2048"
   viewBox="0 0 2048 2048"
   sodipodi:docname="acc-plus-cup-only-new-color.svg"
   inkscape:version="1.3 (0e150ed6c4, 2023-07-21)"
   xmlns:inkscape="http://www.inkscape.org/namespaces/inkscape"
   xmlns:sodipodi="http://sodipodi.sourceforge.net/DTD/sodipodi-0.dtd"
   xmlns="http://www.w3.org/2000/svg"
   xmlns:svg="http://www.w3.org/2000/svg">
  <defs
     id="defs1">
    <filter
       style="color-interpolation-filters:sRGB;"
       inkscape:label="Colorize"
       id="filter50"
       x="0"
       y="0"
       width="1"
       height="1">
      <feComposite
         in2="SourceGraphic"
         operator="arithmetic"
         k1="0"
         k2="1"
         result="composite1"
         id="feComposite49" />
      <feColorMatrix
         in="composite1"
         values="1"
         type="saturate"
         result="colormatrix1"
         id="feColorMatrix49" />
      <feFlood
         flood-opacity="1"
         flood-color="rgb(24,171,96)"
         result="flood1"
         id="feFlood49" />
      <feBlend
         in="flood1"
         in2="colormatrix1"
         mode="multiply"
         result="blend1"
         id="feBlend49" />
      <feBlend
         in2="blend1"
         mode="screen"
         result="blend2"
         id="feBlend50" />
      <feColorMatrix
         in="blend2"
         values="1"
         type="saturate"
         result="colormatrix2"
         id="feColorMatrix50" />
      <feComposite
         in="colormatrix2"
         in2="SourceGraphic"
         operator="in"
         k2="1"
         result="composite2"
         id="feComposite50" />
    </filter>
    <filter
       style="color-interpolation-filters:sRGB;"
       inkscape:label="Colorize"
       id="filter52"
       x="0"
       y="0"
       width="1"
       height="1">
      <feComposite
         in2="SourceGraphic"
         operator="arithmetic"
         k1="0"
         k2="1"
         result="composite1"
         id="feComposite51" />
      <feColorMatrix
         in="composite1"
         values="1"
         type="saturate"
         result="colormatrix1"
         id="feColorMatrix51" />
      <feFlood
         flood-opacity="1"
         flood-color="rgb(24,171,96)"
         result="flood1"
         id="feFlood51" />
      <feBlend
         in="flood1"
         in2="colormatrix1"
         mode="multiply"
         result="blend1"
         id="feBlend51" />
      <feBlend
         in2="blend1"
         mode="screen"
         result="blend2"
         id="feBlend52" />
      <feColorMatrix
         in="blend2"
         values="1"
         type="saturate"
         result="colormatrix2"
         id="feColorMatrix52" />
      <feComposite
         in="colormatrix2"
         in2="SourceGraphic"
         operator="in"
         k2="1"
         result="composite2"
         id="feComposite52" />
    </filter>
    <filter
       style="color-interpolation-filters:sRGB;"
       inkscape:label="Colorize"
       id="filter54"
       x="0"
       y="0"
       width="1"
       height="1">
      <feComposite
         in2="SourceGraphic"
         operator="arithmetic"
         k1="0"
         k2="1"
         result="composite1"
         id="feComposite53" />
      <feColorMatrix
         in="composite1"
         values="1"
         type="saturate"
         result="colormatrix1"
         id="feColorMatrix53" />
      <feFlood
         flood-opacity="1"
         flood-color="rgb(24,171,96)"
         result="flood1"
         id="feFlood53" />
      <feBlend
         in="flood1"
         in2="colormatrix1"
         mode="multiply"
         result="blend1"
         id="feBlend53" />
      <feBlend
         in2="blend1"
         mode="screen"
         result="blend2"
         id="feBlend54" />
      <feColorMatrix
         in="blend2"
         values="1"
         type="saturate"
         result="colormatrix2"
         id="feColorMatrix54" />
      <feComposite
         in="colormatrix2"
         in2="SourceGraphic"
         operator="in"
         k2="1"
         result="composite2"
         id="feComposite54" />
    </filter>
    <filter
       style="color-interpolation-filters:sRGB;"
       inkscape:label="Colorize"
       id="filter56"
       x="0"
       y="0"
       width="1"
       height="1">
      <feComposite
         in2="SourceGraphic"
         operator="arithmetic"
         k1="0"
         k2="1"
         result="composite1"
         id="feComposite55" />
      <feColorMatrix
         in="composite1"
         values="1"
         type="saturate"
         result="colormatrix1"
         id="feColorMatrix55" />
      <feFlood
         flood-opacity="1"
         flood-color="rgb(24,171,96)"
         result="flood1"
         id="feFlood55" />
      <feBlend
         in="flood1"
         in2="colormatrix1"
         mode="multiply"
         result="blend1"
         id="feBlend55" />
      <feBlend
         in2="blend1"
         mode="screen"
         result="blend2"
         id="feBlend56" />
      <feColorMatrix
         in="blend2"
         values="1"
         type="saturate"
         result="colormatrix2"
         id="feColorMatrix56" />
      <feComposite
         in="colormatrix2"
         in2="SourceGraphic"
         operator="in"
         k2="1"
         result="composite2"
         id="feComposite56" />
    </filter>
    <filter
       style="color-interpolation-filters:sRGB;"
       inkscape:label="Colorize"
       id="filter58"
       x="0"
       y="0"
       width="1"
       height="1">
      <feComposite
         in2="SourceGraphic"
         operator="arithmetic"
         k1="0"
         k2="1"
         result="composite1"
         id="feComposite57" />
      <feColorMatrix
         in="composite1"
         values="1"
         type="saturate"
         result="colormatrix1"
         id="feColorMatrix57" />
      <feFlood
         flood-opacity="1"
         flood-color="rgb(24,171,96)"
         result="flood1"
         id="feFlood57" />
      <feBlend
         in="flood1"
         in2="colormatrix1"
         mode="multiply"
         result="blend1"
         id="feBlend57" />
      <feBlend
         in2="blend1"
         mode="screen"
         result="blend2"
         id="feBlend58" />
      <feColorMatrix
         in="blend2"
         values="1"
         type="saturate"
         result="colormatrix2"
         id="feColorMatrix58" />
      <feComposite
         in="colormatrix2"
         in2="SourceGraphic"
         operator="in"
         k2="1"
         result="composite2"
         id="feComposite58" />
    </filter>
  </defs>
  <sodipodi:namedview
     id="namedview1"
     pagecolor="#ffffff"
     bordercolor="#000000"
     borderopacity="0.25"
     inkscape:showpageshadow="2"
     inkscape:pageopacity="0.0"
     inkscape:pagecheckerboard="0"
     inkscape:deskcolor="#d1d1d1"
     inkscape:zoom="0.40087891"
     inkscape:cx="1022.7527"
     inkscape:cy="1024"
     inkscape:window-width="1920"
     inkscape:window-height="1017"
     inkscape:window-x="1912"
     inkscape:window-y="-8"
     inkscape:window-maximized="1"
     inkscape:current-layer="g1" />
  <g
     inkscape:groupmode="layer"
     inkscape:label="Image"
     id="g1">
    <path
       style="fill:#dcf1e2"
       d="m 1626.1123,1819.8877 c -0.8885,-0.8885 -1.2,-10.4651 -1.2,-36.893 0,-31.6249 -0.1803,-35.7622 -1.5818,-36.3 -0.87,-0.3339 -18.1791,-0.607 -38.4648,-0.607 -42.443,0 -38.9534,0.9348 -38.9534,-10.4343 0,-4.1088 -0.4117,-6.5657 -1.1001,-6.5657 -0.6051,0 -10.1676,2.6755 -21.25,5.9455 -191.3771,56.4683 -401.9297,80.1308 -600.6499,67.5028 -193.81031,-12.3161 -370.03226,-57.1607 -526.52449,-133.9888 -22.40891,-11.0014 -29.51821,-15.4595 -24.65333,-15.4595 1.17269,0 5.17994,1.1688 8.90499,2.5973 68.68287,26.3391 123.61405,43.8361 190.77283,60.7659 275.84301,69.5366 585.4109,69.8922 889.5,1.0217 27.7691,-6.2892 82.4282,-19.9135 84.1434,-20.9735 0.4711,-0.2912 0.8566,-4.5207 0.8566,-9.399 0,-6.7299 0.3791,-9.2486 1.5714,-10.441 1.3704,-1.3703 6.177,-1.5714 37.5658,-1.5714 22.8994,0 36.698,-0.3766 37.9285,-1.0352 1.8523,-0.9913 1.9343,-2.4321 1.9343,-34 0,-18.1306 -0.2472,-32.9648 -0.5492,-32.9648 -0.3021,0 -8.2896,2.8674 -17.75,6.3719 -102.1946,37.8574 -206.3177,57.0337 -327.052,60.2331 -24.8369,0.6581 -25.8373,0.6122 -25.494,-1.1701 0.2485,-1.2908 3.3972,-3.1071 10.3512,-5.9713 45.5061,-18.7426 84.0152,-50.2691 107.4461,-87.9636 2.3932,-3.85 4.8455,-7.3306 5.4496,-7.7347 0.604,-0.4041 8.5233,-0.7423 17.5983,-0.7517 72.6855,-0.075 148.6844,-15.6202 226.8446,-46.4008 38.2548,-15.0652 70.8185,-29.9952 131.9811,-60.5111 18.8791,-9.4194 34.7416,-16.8691 35.25,-16.5549 1.9296,1.1925 0.5983,2.6926 -10.8257,12.1982 -69.288,57.6523 -154.3566,99.9058 -270.25,134.2328 -9.625,2.8509 -20.875,6.2595 -25,7.5748 l -7.5,2.3913 7,-0.5309 c 13.3776,-1.0145 46.1189,-5.421 66.3188,-8.9255 47.649,-8.2667 97.0223,-20.202 179.6046,-43.4168 12.1393,-3.4125 14.5766,-3.7003 14.5766,-1.7214 0,2.6502 -49.4902,28.4938 -81.651,42.638 -10.367,4.5593 -19.2765,8.6773 -19.799,9.1511 -0.5339,0.4842 11.3145,0.8616 27.05,0.8616 20.4444,0 28.3238,0.3238 29.2,1.2 0.8585,0.8585 1.2,7.2816 1.2,22.5674 v 21.3674 l 2.25,-0.6794 c 5.2473,-1.5842 35.323,-16.7592 48.1564,-24.2977 52.1766,-30.6492 83.528,-64.9419 92.2642,-100.9204 1.911,-7.8699 2.1371,-25.3357 0.422,-32.5905 -5.053,-21.3738 -20.8947,-44.0472 -43.9876,-62.9569 -9.8221,-8.0428 -28.7549,-20.5717 -44.0303,-29.1374 -11.9542,-6.7033 -14.1923,-9.0093 -6.3334,-6.5254 5.3497,1.6909 32.0539,15.5813 43.0681,22.4023 30.7954,19.0713 53.1345,41.1832 63.7187,63.0706 6.5311,13.5058 7.9076,19.6688 7.9291,35.5 0.022,16.4579 -1.8766,24.181 -9.9583,40.5 -7.0251,14.1856 -15.9824,26.0565 -30.9626,41.0342 -25.6413,25.6369 -55.173,45.9574 -101.2863,69.6942 -12.5184,6.4438 -21.25,11.5205 -21.25,12.355 0,1.1972 5.8664,1.4166 37.8776,1.4166 30.8338,0 38.0887,0.2545 39.0134,1.3687 0.8104,0.9764 1.0604,11.0785 0.8725,35.25 l -0.2635,33.8813 -38.5,0.5 -38.5,0.5 -0.5,36 c -0.275,19.8 -0.8641,36.5625 -1.309,37.25 -1.1445,1.7683 -69.7247,1.8163 -71.491,0.05 z m -1055.7,-116.37 c -162.61709,-46.9541 -238.69904,-84.1144 -260.1693,-127.0731 -4.18331,-8.3702 -4.61425,-9.9261 -5.09773,-18.4055 -0.43825,-7.6863 -0.2606,-9.458 1.044,-10.412 1.19921,-0.8769 7.34197,-0.5884 25.89757,1.2161 13.379,1.3012 24.74613,2.7816 25.26029,3.2899 0.57833,0.5718 0.10361,2.5886 -1.24484,5.2886 -3.25604,6.5196 -3.62198,9.8844 -1.72939,15.9014 6.30659,20.0503 37.68713,43.5196 98.5394,73.6971 34.87206,17.2935 65.51087,30.432 126,54.0311 24.69791,9.6357 20.52391,10.8468 -8.5,2.4664 z m 475.5,-8.5709 c -102.12329,-6.4442 -196.64622,-36.2999 -260.74797,-82.3591 -12.36762,-8.8865 -35.37302,-31.6443 -41.95155,-41.5 -11.49766,-17.2253 -10.88728,-19.6476 1.87779,-7.4519 24.10269,23.0276 69.04003,41.2457 132.82173,53.8474 57.50216,11.3611 124.7324,16.6835 171.5,13.5773 120.2964,-7.9901 214.0109,-59.0551 287.1586,-156.4728 48.3986,-64.4569 94.9504,-166.7784 127.8425,-281 10.2967,-35.7565 15.2516,-55.5658 26.5761,-106.25 1.9493,-8.7245 3.2924,-11.0564 4.5221,-7.8519 0.5639,1.4696 -3.9965,58.2725 -8.157,101.6019 -11.249,117.15 -29.3147,200.1539 -60.0331,275.8249 -2.9751,7.3287 -5.4092,13.5162 -5.4092,13.75 0,3.1782 48.2944,-10.344 75.9268,-21.2591 95.7482,-37.8216 167.6796,-98.6264 192.018,-162.3158 6.3788,-16.6923 9.5939,-37.369 8.7076,-56 -2.6836,-56.4116 -26.8542,-94.1988 -66.6091,-104.1336 -7.1897,-1.7967 -10.4108,-2.0369 -21.5,-1.6032 -16.2132,0.6341 -26.0711,3.3209 -43.0433,11.7317 -25.2996,12.5376 -48.4846,34.8556 -66.5124,64.0252 -9.0883,14.7052 -9.6691,13.6305 -4.605,-8.5201 3.0873,-13.5039 5.0888,-27.0774 7.0779,-48 2.5517,-26.8401 4.7856,-45.8832 5.6605,-48.2529 0.4617,-1.2508 4.9567,-4.9675 10.1053,-8.3558 18.1223,-11.9262 40.7539,-21.3071 62.5094,-25.9105 13.7464,-2.9086 38.4787,-3.6887 51.7643,-1.6328 34.6808,5.367 63.5149,22.4544 80.2962,47.5847 4.0602,6.0802 5.1567,9.0673 3.3284,9.0673 -0.4815,0 -4.869,-3.2272 -9.75,-7.1715 -21.8653,-17.6691 -39.7394,-26.3338 -62.3272,-30.2138 -26.887,-4.6186 -57.7589,1.4967 -89.6785,17.7641 -4.8779,2.486 -8.4189,4.54 -7.8689,4.5644 0.55,0.024 5.725,-1.3204 11.5,-2.9885 21.8178,-6.302 32.9876,-8.0898 54.1587,-8.6686 28.6289,-0.7826 45.2515,2.3891 65.3413,12.4673 26.0615,13.074 43.9553,32.2544 60.0731,64.3923 10.8532,21.6406 15.3294,38.9663 16.1096,62.3543 1.5287,45.8212 -16.1193,100.3133 -46.4742,143.5 -12.6825,18.0436 -37.1663,44.1694 -56.2085,59.9782 -56.4462,46.8613 -139.7411,84.9122 -253,115.5757 -9.625,2.6059 -18.3367,5.4598 -19.3593,6.342 -1.0225,0.8823 -6.4047,7.6791 -11.9603,15.1041 -30.6349,40.9431 -42.9271,53.3938 -70.8198,71.7331 -59.952,39.4181 -153.6472,59.2604 -250.8606,53.126 z M 276.40563,1567.8377 c -17.38514,-20.1738 -19.4362,-42.9849 -6.00095,-66.7403 25.57768,-45.225 113.19619,-96.8493 241.13835,-142.0775 41.62349,-14.7141 93.12493,-29.5249 114.6479,-32.9705 4.27825,-0.685 7.99545,-1.5961 8.26044,-2.0249 0.26499,-0.4288 -0.86693,-6.9504 -2.51538,-14.4924 -6.30824,-28.8616 -11.65258,-66.0484 -15.08218,-104.9444 -1.67959,-19.0487 -2.34844,-95.1093 -1.04205,-118.5 1.66541,-29.8188 2.24422,-35.8142 3.6422,-37.7261 1.10273,-1.5081 1.62685,-0.9226 4.36832,4.8798 3.84352,8.1348 9.05984,14.1639 17.84481,20.6252 40.07054,29.4718 138.57229,53.5085 304.24521,74.2429 13.475,1.6865 25.2875,3.3018 26.25,3.5896 2.92535,0.8749 1.98946,3.2594 -1.5,3.8218 -27.92931,4.5017 -71.2604,7.7054 -136.25,10.0738 -44.35255,1.6164 -61.43084,2.7171 -78.3845,5.0518 -55.30605,7.6164 -77.93576,30.1945 -83.05399,82.8649 -4.3373,44.6339 5.86243,116.594 32.37919,228.4384 3.04635,12.8491 5.29187,23.7616 4.99004,24.25 -1.21918,1.9726 -2.60105,0.4838 -7.76121,-8.3621 -18.07314,-30.9822 -35.08635,-68.8583 -48.62372,-108.25 -2.8352,-8.25 -5.48062,-15.3278 -5.87871,-15.7283 -0.39809,-0.4006 -7.46104,0.8009 -15.69545,2.6701 -83.25281,18.8979 -176.83512,57.5569 -258.0264,106.5913 -13.70844,8.279 -16.44525,9.5399 -16.44525,7.5767 0,-1.5907 9.77597,-9.7717 27,-22.5948 45.60417,-33.9519 98.1773,-63.0848 155.03413,-85.9108 24.75343,-9.9376 21.57689,-9.4683 -17.53413,2.5907 -57.08459,17.6007 -119.21891,42.7666 -157.86333,63.9385 -15.01374,8.2255 -37.61722,22.9777 -47.77271,31.179 -35.7588,28.8776 -48.06327,57.3293 -36.29814,83.9324 1.3388,3.0272 2.43418,6.1231 2.43418,6.8796 0,2.6201 -2.86072,1.3564 -6.50667,-2.8744 z M 1605.4123,1373.4605 c -6.1844,-5.2677 -21.3845,-14.7766 -32.5,-20.3313 -15.6704,-7.8309 -34.8782,-15.6894 -63.4579,-25.9626 -16.5146,-5.9363 -24.0421,-9.1008 -24.0421,-10.107 0,-1.9996 2.8949,-1.697 34,3.5534 42.6467,7.1987 77.0509,14.6445 104.5,22.6163 10.1783,2.9559 13,4.2367 13,5.9009 0,2.9028 -24.447,27.0074 -27.304,26.9215 -0.6578,-0.02 -2.546,-1.1858 -4.196,-2.5912 z m -606.5,-257.4409 c -131.85238,-2.9192 -241.87513,-16.5112 -307,-37.9263 -21.43782,-7.0494 -41.32438,-18.9308 -45.63387,-27.2645 -2.21127,-4.2761 -2.02903,-10.5374 0.44776,-15.3837 14.40355,-28.1831 122.58996,-52.7356 272.18611,-61.7715 41.35222,-2.4978 47.33715,-2.742 84.1766,-3.4348 19.6221,-0.369 35.9982,-0.9925 36.3912,-1.3856 1.9922,-1.9922 -15.9103,-20.77668 -19.775,-20.74919 -24.76277,0.17619 -89.75848,3.98052 -128.48618,7.52056 -128.94865,11.78703 -219.99386,33.35653 -256.07606,60.66703 -7.33038,5.5484 -9.2309,5.9697 -9.22977,2.0461 10e-4,-4.8026 5.48961,-14.6782 11.66392,-20.9882 28.36298,-28.9862 102.43981,-48.47014 238.33529,-62.68772 34.10031,-3.56763 88.61488,-7.51311 104.45,-7.55956 2.80615,-0.008 4.53855,-0.38372 4,-0.86697 -1.46625,-1.3157 -17.42371,-6.89928 -60.10851,-21.03223 C 855.67222,882.49563 825.12045,869.05414 790.75033,846.46714 723.05707,801.98117 678.44866,734.81158 675.27419,672.5877 c -1.7891,-35.0689 13.37726,-69.31097 40.87057,-92.27611 18.34903,-15.32692 26.53389,-19.61905 87.26754,-45.76299 85.05486,-36.61347 132.08631,-58.60533 162.5,-75.98484 15.90647,-9.08955 41.2886,-25.69119 52.3013,-34.20856 50.9187,-39.38134 82.7048,-87.63861 100.6716,-152.83823 4.2223,-15.32264 12.0097,-51.91679 12.0209,-56.48814 0,-1.40738 0.622,-3.40098 1.3746,-4.43022 1.3304,-1.81952 1.3979,-1.81602 2.4375,0.12639 3.1743,5.9312 6.6612,57.43356 5.8471,86.3627 -1.8775,66.71839 -17.3903,120.84625 -47.6463,166.24953 -12.7533,19.13804 -20.265,28.17519 -38.9238,46.82818 -18.0591,18.05348 -29.2993,27.66788 -62.0829,53.10314 -37.30428,28.94266 -50.68139,42.37506 -59.07497,59.31915 -21.22135,42.83945 7.60873,95.47577 102.14197,186.48494 37.5645,36.16419 44.1175,42.97481 50.1968,52.17036 12.2672,18.5553 16.8544,31.86644 20.4509,59.3447 l 0.7853,6 6,0.22125 c 19.0104,0.701 49.8795,2.62179 69.4221,4.31973 12.3322,1.07146 22.6567,1.71358 22.9433,1.42693 1.1797,-1.17965 1.2913,-18.96963 0.1673,-26.65674 -2.9254,-20.00686 -12.837,-41.42512 -27.447,-59.31117 -2.2463,-2.75 -11.031,-12.65 -19.5215,-22 -57.7579,-63.6047 -83.2722,-104.87509 -90.7001,-146.71085 -2.1951,-12.36341 -2.1904,-34.43322 0.01,-46.28915 4.0833,-22.00208 14.2072,-45.72476 28.9061,-67.73408 9.3256,-13.96367 14.1693,-19.63514 15.5932,-18.25814 0.721,0.69716 0.7284,5.78289 0.024,16.5 -1.5859,24.13588 0.3226,50.60354 5.0992,70.71552 7.893,33.23364 27.2549,64.57892 55.1024,89.20601 19.6099,17.34213 35.1887,28.67581 65.4008,47.5795 12.1,7.57096 26.0527,16.80271 31.0059,20.515 58.317,43.7066 66.7137,95.05046 24.091,147.3117 -2.6175,3.20953 -4.5637,6.03104 -4.3247,6.27003 0.239,0.23898 8.0571,1.75181 17.3735,3.36184 34.6858,5.99424 81.872,16.81932 112.8543,25.89022 12.5941,3.6872 15.5,4.8342 15.5,6.1176 0,1.5433 -1.8342,1.3512 -28.1659,-2.9507 -43.7819,-7.1528 -118.6714,-17.0245 -129.1521,-17.0245 -3.2818,0 -4.888,0.91407 -11.0504,6.2886 -3.9658,3.4587 -8.8924,7.5715 -10.9482,9.1394 -2.0557,1.568 -3.5083,3.0802 -3.2281,3.3605 0.2803,0.2802 9.855,1.5527 21.2772,2.8277 98.7107,11.0186 165.2744,28.5484 185.6064,48.8804 7.434,7.434 8.546,15.5459 3.2319,23.576 -12.9295,19.5378 -75.6142,38.401 -165.8437,49.9058 -59.8302,7.6287 -113.7565,11.2998 -191.2269,13.0181 -47.6446,1.0567 -55.0549,1.0522 -105.5,-0.065 z m 195.9326,-149.1819 c 3.587,-7.98615 5.572,-13.58333 5.0092,-14.12492 -1.3737,-1.32206 -93.5562,-5.05806 -94.3197,-3.82262 -0.6078,0.98344 -3.7908,20.38494 -3.3967,20.70404 0.151,0.1222 16.2496,0.7816 35.7746,1.4651 19.525,0.6836 35.6875,1.4196 35.9167,1.6356 0.2291,0.2161 4.4199,0.3928 9.3127,0.3928 h 8.896 z"
       id="path8" />
    <path
       style="fill:#ccebd5"
       d="m 1626.579,1819.421 c -0.3667,-0.3666 -0.6667,-17.0166 -0.6667,-37 v -36.3333 h -37.9286 c -33.1472,0 -38.1266,-0.1981 -39.5,-1.5714 -1.1465,-1.1465 -1.5714,-3.5801 -1.5714,-9 0,-6.1369 -0.2777,-7.4286 -1.5969,-7.4286 -0.8783,0 -8.1908,2.0016 -16.25,4.4481 -22.4347,6.8103 -52.9407,15.0619 -81.6531,22.0865 -220.9053,54.0452 -456.66266,64.8913 -671.5,30.8924 -136.4064,-21.5869 -262.51775,-60.5306 -375.5,-115.9558 -19.71447,-9.6713 -26.07983,-13.2247 -25.22362,-14.0809 0.27606,-0.2761 6.73931,1.8078 14.36278,4.6309 61.20714,22.6656 104.38544,36.6669 155.57127,50.4466 292.27641,78.6837 620.04747,79.0335 944.78957,1.0082 22.5821,-5.4258 49.0344,-12.1636 55.25,-14.0732 1.5015,-0.4612 1.75,-1.8487 1.75,-9.7702 0,-5.8476 0.44,-9.6726 1.2,-10.4326 0.8878,-0.8878 10.3446,-1.2 36.3508,-1.2 22.9429,0 36.2445,-0.3813 38.3,-1.0978 l 3.1492,-1.0979 v -33.9021 c 0,-21.0659 -0.3646,-33.9022 -0.963,-33.9022 -0.5296,0 -3.3421,0.948 -6.25,2.1067 -13.8741,5.5283 -46.1929,16.6076 -65.1921,22.3487 -85.2479,25.7596 -176.4817,39.9534 -271.4825,42.2363 -30.5681,0.7345 -31.4087,0.4007 -15.5522,-6.1748 29.8792,-12.3908 55.3446,-29.4207 77.5545,-51.8646 9.5572,-9.6579 23.9003,-27.7241 30.3853,-38.2725 l 3,-4.8798 25,-0.6503 c 72.8892,-1.8961 135.5674,-14.6892 211,-43.0668 35.72,-13.4378 73.0794,-30.3165 132.8867,-60.0371 21.9377,-10.9017 40.3312,-19.6732 40.8743,-19.4921 2.2385,0.7461 -20.3415,19.4161 -42.8652,35.4426 -65.0936,46.3167 -144.7008,82.1525 -249.2688,112.2104 -13.4051,3.8532 -24.6176,7.2506 -24.9166,7.5496 -1.03,1.03 7.3366,0.5372 25.2896,-1.4897 59.8635,-6.7583 117.4701,-19.0458 212.9386,-45.4196 17.0163,-4.7008 31.0788,-8.547 31.25,-8.547 0.1713,0 0.3114,0.4444 0.3114,0.9875 0,3.0261 -57.403,32.4225 -91.75,46.9857 -5.6375,2.3903 -10.25,4.7175 -10.25,5.1715 0,0.4541 13.3875,0.9447 29.75,1.0904 l 29.75,0.2649 0.2694,22.3535 0.2694,22.3536 2.5865,-0.6492 c 4.5443,-1.1406 32.4139,-14.968 46.3747,-23.0087 53.3864,-30.7479 85.7144,-65.2103 95.1225,-101.4028 2.766,-10.6407 2.7378,-26.8613 -0.065,-37.5924 -7.3704,-28.2158 -30.5025,-54.4847 -69.5572,-78.9896 -6.05,-3.796 -11.9,-7.764 -13,-8.8177 -1.9745,-1.8914 -1.9491,-1.8951 2,-0.2893 6.8643,2.7912 25.5164,13.3934 37,21.0315 34.6131,23.0223 55.1191,48.0336 61.6001,75.1341 2.9611,12.3817 2.3206,29.1453 -1.5808,41.377 -14.2568,44.6984 -62.2569,87.9883 -142.2658,128.3054 -15.4806,7.8009 -18.247,9.5339 -18.25,11.4329 v 2.2382 l 38.75,0.2618 38.75,0.2617 0.2635,33.9326 c 0.2057,26.4815 -0.014,34.1088 -1,34.7347 -0.6949,0.4411 -18.251,0.809 -39.0135,0.8174 l -37.7538,0.015 v 35.8 c 0,26.5111 -0.3114,36.1114 -1.2,37 -0.8865,0.8865 -10.1185,1.2 -35.3333,1.2 -18.7734,0 -34.4334,-0.3 -34.8,-0.6667 z M 576.9123,1704.4364 c -28.88382,-7.7177 -99.93707,-30.3932 -128,-40.8492 -81.77878,-30.4698 -127.7889,-60.5197 -139.96636,-91.4142 -3.89553,-9.883 -4.83527,-23.1806 -1.72253,-24.3741 1.42553,-0.5466 48.74374,4.0103 49.50049,4.7671 0.29015,0.2901 -0.56126,2.8543 -1.89202,5.6982 -5.26783,11.2575 -1.37662,21.749 13.47202,36.3235 27.82969,27.3159 89.79225,59.7563 189.1084,99.0076 14.85,5.8689 27.4275,11.0806 27.95,11.5816 1.34693,1.2914 -1.91565,1.0054 -8.45,-0.7405 z m 468.5,-10.3574 c -81.9035,-5.8483 -154.10617,-24.2312 -214,-54.4845 -29.83501,-15.0701 -51.05775,-29.9031 -70.02134,-48.9394 -11.02552,-11.0678 -23.49347,-27.1838 -23.48293,-30.354 0.002,-0.7077 3.4162,1.689 7.58633,5.3259 38.63393,33.6938 116.69681,56.1705 227.91794,65.6246 22.07468,1.8764 73.356,1.5933 92.2998,-0.5094 52.7561,-5.856 95.4072,-17.9879 136.2002,-38.7417 77.0073,-39.1782 138.9236,-106.1903 188.4851,-203.9976 40.3394,-79.6078 72.9543,-174.0117 97.0364,-280.8715 4.3693,-19.3883 6.2451,-25.7137 6.537,-22.0437 0.5971,7.5105 -6.2369,88.2783 -11.1268,131.5 -10.6832,94.4303 -28.8908,172.2845 -55.8811,238.9435 -3.3278,8.2189 -6.0506,15.3643 -6.0506,15.8788 0,2.437 31.5786,-5.1457 55.426,-13.3089 103.6386,-35.4767 185.9454,-100.0473 212.5981,-166.7856 10.8722,-27.2238 13.3065,-52.5839 8.0138,-83.4847 -8.9054,-51.9935 -40.2145,-83.7035 -82.6774,-83.7361 -41.2115,-0.032 -82.635,27.4058 -113.1874,74.971 -3.2602,5.0756 -6.1872,8.8082 -6.5046,8.2947 -0.3173,-0.5135 0.074,-3.3724 0.8699,-6.3531 3.7812,-14.164 7.0973,-36.6047 9.9626,-67.4196 1.6753,-18.0172 3.189,-31.1611 4.1271,-35.8373 0.4506,-2.2464 2.6153,-4.1778 10.3954,-9.2755 17.6423,-11.5594 37.2293,-19.7798 59.5551,-24.9945 10.9299,-2.5529 13.6264,-2.789 32.4214,-2.8386 16.4592,-0.043 22.1755,0.3138 29,1.8125 19.4438,4.2699 37.6946,12.6679 51.3221,23.6157 11.2426,9.0319 25.5605,26.4685 23.4595,28.5695 -0.3469,0.3468 -4.1522,-2.261 -8.4562,-5.7953 -19.7215,-16.1947 -38.7408,-25.6039 -60.3696,-29.866 -9.4575,-1.8637 -32.605,-1.5996 -43.4558,0.4958 -13.5164,2.6101 -31.8728,9.0511 -47.3839,16.6262 -7.6253,3.724 -14.1724,7.2696 -14.5491,7.8792 -0.9489,1.5352 -0.955,1.5364 12.1943,-2.4545 25.629,-7.7787 42.8546,-10.6213 64.7387,-10.6834 29.0012,-0.082 51.5124,6.0812 71.9825,19.7086 19.4236,12.9307 33.8732,30.3286 47.1103,56.7226 18.0296,35.9501 21.0864,67.8368 10.8572,113.256 -9.8871,43.8999 -33.4433,88.0142 -64.7624,121.2823 -59.9562,63.6873 -145.579,107.7329 -282.5378,145.3415 -11.9074,3.2698 -22.0998,6.5188 -22.6498,7.22 -0.55,0.7013 -8.6324,11.3663 -17.9608,23.7 -18.2867,24.178 -32.359,39.6462 -45.0392,49.5069 -40.885,31.7939 -94.2836,52.862 -157,61.9434 -31.5678,4.5711 -83.4789,6.6641 -113,4.5562 z M 277.21882,1567.3377 c -7.29311,-7.7198 -13.32206,-20.46 -14.84989,-31.3803 -0.8978,-6.417 1.07613,-17.9393 4.44817,-25.965 13.47639,-32.0748 58.51271,-67.6293 129.78508,-102.4605 68.95321,-33.6978 163.28742,-67.1465 223.93782,-79.4032 8.04044,-1.6249 14.82065,-3.156 15.06715,-3.4025 0.2465,-0.2465 -0.69122,-5.5535 -2.08382,-11.7933 -8.06681,-36.145 -13.92328,-79.6139 -16.61802,-123.3452 -2.59689,-42.1435 -0.17934,-137.9418 3.51207,-139.1692 0.55279,-0.1838 2.01532,1.8679 3.25006,4.5594 17.55044,38.2564 118.55795,67.9292 318.74486,93.6373 15.4,1.9777 28.3828,3.9733 28.85066,4.4348 1.07913,1.0644 -1.00094,1.6589 -10.35066,2.9583 -28.30669,3.9341 -64.91881,6.5258 -121,8.5653 -64.57038,2.3482 -82.85805,3.9386 -103.89495,9.0351 -35.20323,8.5285 -53.56123,26.9622 -61.16312,61.4152 -9.6025,43.5202 -0.3021,121.1844 29.61417,247.2971 2.44415,10.3034 4.4439,19.4159 4.4439,20.25 0,4.8057 -4.347,-1.8522 -17.29145,-26.4833 -13.30191,-25.3113 -27.73469,-59.4534 -37.19997,-88 -2.6443,-7.975 -5.29925,-14.8188 -5.89989,-15.2084 -1.25853,-0.8164 -0.0153,-1.0535 -22.10869,4.2169 -81.97624,19.5556 -167.03468,54.7704 -248.42943,102.8516 -8.48619,5.0129 -15.68619,8.8502 -16,8.5272 -1.21906,-1.2544 21.80217,-19.194 44.42943,-34.6222 46.26312,-31.5442 96.24884,-57.0942 152.31299,-77.8543 9.52214,-3.5259 16.68157,-6.5424 15.90983,-6.7033 -2.44001,-0.5088 -46.02896,12.4435 -78.22282,23.2435 -120.89461,40.5563 -196.17195,85.4579 -216.04532,128.867 -3.674,8.0251 -5.73957,18.9519 -4.96869,26.2843 0.35286,3.3562 1.91114,9.7687 3.46286,14.25 1.55171,4.4812 2.40153,8.1477 1.88847,8.1477 -0.51305,0 -2.10191,-1.2375 -3.5308,-2.75 z m 1329.64698,-193.806 c -2.9182,-3.5162 -23.3271,-16.125 -36.4331,-22.5086 -16.0165,-7.8013 -31.2781,-14.0129 -60.5204,-24.6325 -11.275,-4.0945 -20.9275,-7.8628 -21.45,-8.3738 -1.7202,-1.6824 4.6227,-1.0094 29.0261,3.0794 54.995,9.2145 116.8607,23.802 118.2184,27.8751 0.543,1.6288 -23.8685,26.1164 -26.0351,26.1164 -0.833,0 -2.0956,-0.7002 -2.8059,-1.556 z m -605.4535,-258.1186 c -139.15552,-2.568 -271.6712,-20.6419 -325.72776,-44.4262 -53.27337,-23.4397 -35.62543,-50.1217 46.54899,-70.3775 68.73821,-16.9438 164.37366,-26.7386 293.92877,-30.1037 15.4655,-0.4017 24.75,-1.0193 24.75,-1.6464 0,-3.132 -17.2977,-21.78678 -20.1758,-21.75866 -6.5217,0.0637 -55.12743,2.18163 -69.3242,3.02066 -75.67194,4.47226 -159.99903,14.9121 -210.5,26.0602 -46.97796,10.3705 -86.50724,24.9103 -105.47859,38.7977 -3.83822,2.8097 -7.32572,5.1085 -7.75,5.1085 -1.6729,0 -0.62105,-4.9814 2.27603,-10.779 10.39079,-20.7938 41.95625,-37.2823 96.97512,-50.65559 54.84181,-13.33031 152.79997,-25.74088 234.47744,-29.70656 13.2,-0.6409 24.39672,-1.51555 24.8816,-1.94366 1.32907,-1.17348 -2.84546,-2.71085 -55.59713,-20.47506 -57.71609,-19.43598 -75.84838,-26.41325 -101.28447,-38.97405 -55.92569,-27.61714 -98.93725,-65.9166 -126.78082,-112.89147 -32.82432,-55.3779 -35.24873,-109.71106 -6.73584,-150.95641 6.89792,-9.97819 23.39918,-25.78593 34.96946,-33.49973 13.28439,-8.85659 21.05861,-12.57175 74.39111,-35.55018 110.78001,-47.7298 150.72373,-67.31653 189.60747,-92.97558 22.60602,-14.91752 36.66762,-26.20462 53.05772,-42.58882 31.3357,-31.32443 50.7855,-63.4471 66.0673,-109.11456 6.7898,-20.29032 10.8765,-36.37936 15.3391,-60.38933 4.3214,-23.25006 5.3623,-22.54152 8.0795,5.5 8.9465,92.32757 -6.0836,168.45847 -44.914,227.5 -21.9509,33.37631 -47.2271,58.31604 -102.581,101.2157 -44.735,34.66992 -59.34565,52.08507 -63.73007,75.96294 -5.61913,30.6022 14.12199,69.62803 62.61849,123.78925 14.87388,16.61126 42.79018,44.54125 65.30668,65.33879 9.71,8.96867 20.5008,19.89121 23.9797,24.27231 15.328,19.30328 23.3008,38.61961 26.015,63.02872 l 1.1981,10.77464 6.056,0.51858 c 3.3309,0.28522 15.9561,1.01274 28.0561,1.61671 12.1,0.60396 31.675,1.9315 43.5,2.95007 13.7739,1.18646 21.8594,1.50664 22.5,0.89101 0.5833,-0.56056 0.9502,-6.66874 0.8805,-14.65983 -0.1465,-16.79199 -2.8098,-28.14034 -10.2687,-43.75491 -7.2295,-15.1342 -15.0737,-25.90438 -34.2945,-47.08665 -40.7459,-44.90389 -61.4802,-72.18757 -75.887,-99.85733 -24.9408,-47.90166 -26.1825,-91.12161 -3.9359,-137 8.495,-17.51894 25.429,-43.5 28.3525,-43.5 0.8565,0 1.0633,6.78969 0.7949,26.10354 -0.3931,28.29421 0.3896,38.14949 4.5128,56.81783 8.9667,40.59775 30.5137,72.9348 69.4518,104.23099 14.3079,11.49982 29.1027,21.75399 52.8219,36.61043 11.8644,7.43127 25.7611,16.65154 30.8816,20.48949 18.921,14.18198 35.8434,33.67023 42.7001,49.17442 9.7146,21.96643 9.2442,44.51577 -1.4193,68.03365 -3.5807,7.89685 -10.6046,18.89849 -17.7081,27.7363 -2.9604,3.68316 -5.3826,7.11957 -5.3826,7.63646 0,0.51689 2.1375,1.25097 4.75,1.63128 37.2226,5.41861 131.223,27.32441 135.7,31.62341 1.6566,1.5907 -3.5012,1.0396 -28.6159,-3.0578 -38.9037,-6.3469 -113.0818,-16.03 -122.7992,-16.03 -2.4974,0 -5.4274,1.94696 -14.5802,9.6886 -6.3001,5.3287 -11.4547,10.0261 -11.4547,10.4387 0,0.8276 1.6981,1.0744 23.5,3.4158 91.9697,9.8767 162.137,28.0065 182.6485,47.1926 23.1188,21.6249 -5.1208,42.6469 -80.1485,59.6635 -87.7831,19.9096 -224.0015,29.7036 -374.5,26.9262 z m 194.9566,-149.9239 c 2.0316,-4.7293 3.7725,-9.79175 3.8686,-11.25005 0.1742,-2.64251 0.1445,-2.65358 -8.8252,-3.28268 -14.6368,-1.02658 -55.8406,-2.79864 -71.9497,-3.09435 l -14.9496,-0.27442 -1.768,10.5 c -0.9725,5.775 -1.5981,10.9937 -1.3904,11.5972 0.2509,0.7288 8.883,1.3609 25.7177,1.8829 13.937,0.4322 30.74,1.1019 37.34,1.4881 6.6,0.3863 15.6591,0.7764 20.1313,0.8671 l 8.1314,0.1647 z"
       id="path7" />
    <path
       style="fill:#b8e3c5"
       d="m 1626.7045,1814.8377 c -0.2638,-2.3375 -0.3511,-18.1659 -0.194,-35.1743 0.1724,-18.6684 -0.099,-31.6431 -0.6851,-32.7381 -0.9077,-1.6961 -3.4535,-1.8309 -39.1919,-2.0757 l -38.2212,-0.2619 -0.2965,-7.9965 c -0.1631,-4.3981 -0.6703,-8.3703 -1.1273,-8.8273 -0.4569,-0.4569 -7.7484,1.2545 -16.2035,3.8032 -91.2876,27.5172 -200.2929,49.8554 -297.3727,60.9397 -104.0107,11.8757 -211.0257,14.8199 -311,8.5562 -156.04693,-9.7769 -307.35087,-42.5514 -438.5,-94.985 -45.12842,-18.0424 -106.1157,-46.4517 -102.38742,-47.6945 0.58471,-0.1949 10.92358,3.3098 22.97526,7.7882 143.77157,53.4256 298.66309,86.6023 461.41216,98.8314 52.74179,3.9631 72.07697,4.5847 142.5,4.5811 70.1805,0 88.5617,-0.5916 143,-4.5744 117.439,-8.5922 233.5071,-27.0396 349.5,-55.5482 28.5144,-7.0082 44.1657,-11.3123 45.7137,-12.5714 0.7484,-0.6087 1.3234,-4.4978 1.5,-10.1448 l 0.2863,-9.1577 36.5,-0.5 c 35.5526,-0.487 40.5974,-0.9512 41.1358,-3.7852 0.075,-0.3931 0.2192,-15.2514 0.321,-33.0184 0.1246,-21.7216 -0.1656,-32.7491 -0.8858,-33.6633 -0.8809,-1.1183 -2.8458,-0.6609 -11.071,2.5777 -75.633,29.7788 -172.1371,51.5019 -263.5,59.3139 -37.6217,3.2169 -92.155,5.0721 -92.8176,3.1577 -0.1747,-0.5046 3.2003,-2.3464 7.5,-4.0929 43.3356,-17.6022 82.2136,-49.1804 105.8674,-85.9895 3.1809,-4.95 5.8631,-9.1171 5.9605,-9.2603 0.097,-0.1432 10.2598,-0.4904 22.5833,-0.7716 62.5567,-1.4273 116.6852,-10.8323 179.4064,-31.1722 46.796,-15.1755 95.1218,-36.0904 170.4302,-73.7606 33.4713,-16.7428 36.0698,-17.9437 36.0698,-16.6701 0,1.8127 -31.4737,26.5692 -50,39.3289 -64.9662,44.7444 -150.4585,81.5275 -258.75,111.3273 -19.5073,5.3681 -11.5715,5.6205 27.25,0.867 58.148,-7.1201 118.9742,-20.4994 213.4201,-46.944 26.1483,-7.3214 26.4713,-6.8218 3.5799,5.5381 -19.9785,10.7871 -48.0307,24.4867 -66.6638,32.5559 -8.3412,3.6122 -16.1042,7.1063 -17.251,7.7646 -1.6655,0.9561 4.0537,1.2976 28.4148,1.697 l 30.5,0.5 0.5,22.169 c 0.275,12.193 0.8146,22.4826 1.1991,22.8659 1.0078,1.0043 25.6963,-10.5888 42.7836,-20.0901 28.9947,-16.1223 51.0593,-32.4528 69.1006,-51.1428 44.1697,-45.7578 46.3136,-94.2651 6.0378,-136.6056 -10.0398,-10.5543 -21.8548,-20.3258 -36.8711,-30.4938 -6.7375,-4.5622 -12.25,-8.5203 -12.25,-8.7958 0,-1.2026 19.5132,9.7367 30.7319,17.2287 59.1216,39.4819 77.4419,83.5962 54.3469,130.8645 -18.988,38.8627 -63.6738,76.4018 -133.4018,112.0665 -11.4527,5.8578 -21.0656,11.2825 -21.3619,12.0548 -0.2964,0.7723 0.012,2.0681 0.6857,2.8797 1.0331,1.2447 7.1882,1.5164 39.3619,1.7372 l 38.1373,0.2618 v 33.5 33.5 l -37.9122,0.2622 c -25.9526,0.1795 -38.3342,0.6124 -39.25,1.3724 -1.0716,0.8893 -1.3378,8.2502 -1.3378,36.9878 v 35.8776 h -34.8641 -34.8641 z M 571.9123,1702.4887 c -16.82127,-4.488 -53.83573,-15.9701 -85,-26.3677 -105.64592,-35.2474 -158.60523,-65.5884 -175.94025,-100.7983 -4.80484,-9.7593 -6.89816,-25.5923 -3.55332,-26.8758 2.08462,-0.8 46.77028,3.6104 47.94308,4.7319 0.59383,0.5678 0.12561,2.6037 -1.25,5.4352 -6.96919,14.3446 3.84701,31.3456 33.5475,52.7301 29.83595,21.4821 93.35911,52.6168 165.73698,81.2331 28.06425,11.0958 33.14132,13.8135 18.51601,9.9115 z m 486,-8.4647 c -109.14906,-4.2387 -216.41269,-38.0632 -279,-87.9799 -9.92102,-7.9125 -26.92627,-25.066 -32.67163,-32.9564 -8.35107,-11.469 -8.19768,-13.8314 0.38698,-5.96 35.92624,32.9414 124.23545,57.3028 235.76861,65.0402 21.71364,1.5064 70.18754,0.6753 88.51604,-1.5176 92.9648,-11.1227 165.8578,-46.3514 228.0021,-110.1919 36.9845,-37.9939 65.8741,-80.1324 94.8652,-138.3707 39.0051,-78.3548 69.0176,-165.5975 93.2107,-270.9521 2.7094,-11.7986 5.3752,-21.9011 5.9241,-22.45 0.6639,-0.6639 0.997,-0.5126 0.9953,0.4521 -0.01,2.9978 -6.0917,74.2697 -8.0228,93.95 -11.4966,117.1642 -29.3907,198.7268 -60.1788,274.2999 -3.3162,8.1399 -5.7501,15.0791 -5.4087,15.4205 0.9468,0.9468 20.2573,-3.3543 37.5645,-8.3669 30.2476,-8.7605 64.8861,-23.0102 93.5439,-38.4825 81.6364,-44.0752 133.4522,-101.0935 146.1929,-160.871 2.7842,-13.0635 2.5489,-44.6575 -0.4433,-59.5236 -5.4918,-27.284 -15.3667,-46.9152 -30.9367,-61.5016 -25.9505,-24.3112 -62.7601,-27.1034 -100.8084,-7.6467 -23.4872,12.0106 -47.5898,35.1751 -64.4295,61.9219 -2.3374,3.7125 -4.5789,6.75 -4.9811,6.75 -0.4022,0 0.7351,-7.192 2.5274,-15.9823 1.7922,-8.7902 4.4221,-27.1277 5.8442,-40.75 4.5187,-43.2858 5.5659,-51.5952 6.67,-52.9256 0.5931,-0.7146 4.2938,-3.4193 8.2237,-6.0104 32.1203,-21.1778 71.6471,-31.7478 106.2438,-28.411 30.7731,2.968 54.3081,13.2477 73.4441,32.0793 9.5388,9.3871 16.4131,18.1329 15.7697,20.0631 -0.1822,0.5467 -3.0271,-1.3016 -6.3218,-4.1074 -13.8539,-11.7977 -30.5959,-21.3971 -46.2174,-26.4999 -13.5291,-4.4193 -24.0646,-5.757 -40.2731,-5.1134 -15.712,0.6238 -25.4806,2.4481 -41.4318,7.7374 -14.0541,4.6603 -48.3819,21.8916 -43.6558,21.9136 0.7768,0 7.0388,-1.8239 13.9155,-4.0611 52.4495,-17.0637 97.9911,-15.7461 132.6478,3.8375 21.9513,12.4042 39.3927,32.0394 53.555,60.2915 14.5967,29.1186 19.6205,57.6101 15.5057,87.9387 -10.1071,74.4961 -48.0139,136.911 -113.0364,186.1184 -58.4996,44.2711 -136.7759,78.3547 -249,108.4212 -5.5,1.4736 -10.6319,3.1924 -11.4043,3.8198 -0.7724,0.6273 -8.7082,10.8156 -17.6351,22.6406 -20.2741,26.8559 -28.9864,36.7946 -41.273,47.0827 -59.3767,49.7191 -153.2393,75.0846 -262.1876,70.8536 z M 272.96654,1560.971 c -6.62421,-9.4325 -9.15737,-16.3893 -9.78901,-26.8833 -0.6174,-10.2572 1.15662,-18.3401 6.25515,-28.5 22.7321,-45.2986 107.23962,-96.5425 235.47962,-142.7907 45.45966,-16.3945 94.28139,-30.6308 121.20434,-35.343 8.72121,-1.5264 9.79566,-1.9436 9.79566,-3.8036 0,-1.149 -1.30062,-8.1582 -2.89026,-15.5759 -12.18976,-56.881 -18.04977,-122.1452 -16.78934,-186.9868 0.61,-31.3811 2.3973,-65.0492 3.63063,-68.3918 0.57167,-1.5493 1.29874,-0.8253 4.01673,4 21.53066,38.2239 124.14148,67.9971 318.52272,92.4215 25.516,3.2061 30.31779,4.2334 24.92736,5.3328 -19.13968,3.9035 -70.98829,7.7725 -135.91784,10.1423 -47.72508,1.7418 -62.94056,2.7883 -80,5.502 -44.82299,7.1302 -66.61476,24.3955 -75.86837,60.1095 -3.48111,13.4353 -4.6256,24.8023 -4.62881,45.9731 -0.007,44.6494 9.8824,107.1862 31.56062,199.582 2.99011,12.7443 5.43656,24.2112 5.43656,25.4821 0,2.0837 -0.23211,1.9685 -2.36151,-1.1714 -4.38799,-6.4702 -17.67006,-31.7412 -24.78612,-47.1589 -8.94092,-19.3715 -17.42778,-40.4678 -25.27326,-62.8232 l -6.14151,-17.5 -4.01591,0.1692 c -4.83822,0.2038 -32.59644,6.8524 -51.92169,12.4362 -70.45212,20.3561 -141.03239,50.901 -209.03448,90.4634 -25.44786,14.8051 -25.91275,14.1232 -2.41624,-3.5444 54.98723,-41.3461 113.85727,-72.8675 182.37406,-97.6503 24.66492,-8.9214 26.86091,-10.3296 9.07666,-5.8203 -59.6932,15.1353 -137.5051,43.2133 -187,67.4778 -56.58911,27.7425 -91.59708,55.2153 -105.0877,82.4684 -8.02343,16.2086 -8.42646,27.2167 -1.74821,47.75 1.27223,3.9117 -1.90628,1.331 -6.60985,-5.3667 z M 1602.4123,1369.4763 c -17.7652,-13.4958 -44.4171,-26.1754 -89,-42.3417 -11,-3.9887 -20.675,-7.6423 -21.5,-8.1191 -3.0765,-1.7781 5.31,-0.8784 28.2688,3.0328 57.3497,9.7699 114.7312,23.6103 114.7312,27.6731 0,2.1598 -22.5724,24.3723 -24.7341,24.3397 -0.9712,-0.015 -4.4659,-2.0778 -7.7659,-4.5848 z m -583,-254.0661 c -180.21518,-2.6143 -333.7313,-27.274 -366.17393,-58.8193 -6.68352,-6.4987 -8.16697,-10.2073 -6.86311,-17.1575 1.49125,-7.949 15.37922,-18.1562 35.63504,-26.1905 56.92941,-22.5808 185.91878,-39.1984 324.6935,-41.8301 18.8603,-0.3576 34.5404,-1.0531 34.8447,-1.5454 0.8799,-1.4237 -4.165,-8.3131 -11.7176,-16.00172 l -6.9678,-7.09337 -22.7254,0.68019 c -73.69858,2.20585 -151.59656,9.56369 -219.0542,20.6907 -67.07659,11.0642 -118.00522,27.1526 -144.52557,45.6558 -4.3199,3.014 -8.2345,5.0994 -8.69912,4.6343 -1.34288,-1.3442 3.5566,-12.141 7.8114,-17.2136 9.19102,-10.9575 30.89202,-23.4972 55.24209,-31.9211 52.13529,-18.03617 162.22663,-34.21231 273.5,-40.1864 10.45,-0.56104 20.0125,-1.02107 21.25,-1.02229 3.72016,-0.004 2.54906,-1.94315 -2.5,-4.14031 -2.6125,-1.13686 -22.075,-7.84031 -43.25,-14.89655 -21.175,-7.05625 -44.8,-15.04982 -52.5,-17.76351 -61.46202,-21.66086 -104.20054,-46.46157 -139.8808,-81.17138 -35.57955,-34.61183 -59.57365,-74.77707 -68.12006,-114.03046 -2.23694,-10.27422 -3.08302,-35.58035 -1.54196,-46.11977 4.29906,-29.40139 20.98305,-55.88415 47.43102,-75.28799 15.77145,-11.57089 19.53739,-13.4222 83.47049,-41.03355 103.56129,-44.72592 139.24685,-61.94879 176.88025,-85.36744 84.58776,-52.63757 126.05396,-116.12901 144.78626,-221.69125 2.7894,-15.71935 3.6157,-16.03026 5.3154,-2 3.7611,31.04675 4.1255,87.32013 0.7286,112.5 -6.6608,49.37376 -20.8231,89.31196 -44.3256,125 -11.9665,18.17092 -24.0426,32.6102 -41.869,50.06234 -16.437,16.09194 -27.2109,25.2109 -59.8746,50.67735 -38.40119,29.93975 -51.47255,43.23229 -59.52355,60.53075 -11.91777,25.60663 -6.28192,53.81125 18.12284,90.69587 19.92725,30.11744 49.53822,62.86033 100.05441,110.63705 13.0095,12.30402 26.0038,25.32445 28.8762,28.93427 14.8083,18.60981 24.0169,41.15568 25.6202,62.72749 0.3584,4.82082 1.1462,9.38169 1.7507,10.13528 0.8261,1.02967 7.1873,1.66533 25.5992,2.55804 21.5595,1.04533 35.5691,2.01798 66.5991,4.6238 7.9408,0.66685 8.1115,0.63361 8.7363,-1.70105 1.1801,-4.40923 0.6769,-22.59517 -0.8474,-30.63083 -2.0898,-11.01667 -5.4225,-20.3557 -11.3874,-31.91011 -6.7813,-13.1359 -14.4821,-23.22328 -34.6131,-45.34025 -49.7813,-54.6922 -73.532,-89.60225 -85.3828,-125.5 -5.8444,-17.70374 -7.4824,-29.34563 -6.8042,-48.35959 0.8263,-23.1633 4.6913,-38.04961 15.7749,-60.75916 5.7715,-11.82521 21.7414,-37.15191 25.6109,-40.6162 1.9126,-1.7123 1.9376,-1.35342 1.9175,27.5 -0.022,31.32467 0.795,39.61086 5.8849,59.69056 13.4168,52.92894 49.7624,92.29463 129.8302,140.61836 31.7855,19.18369 56.4293,44.01115 65.7063,66.1959 7.8959,18.88204 7.8394,39.82637 -0.1622,60.13808 -4.5657,11.59011 -10.9968,21.88977 -24.1873,38.73707 -1.7896,2.28561 -1.78,2.34783 0.5,3.25828 1.2783,0.51049 11.6783,2.574 23.111,4.58557 25.412,4.47124 62.8991,12.77293 87.7562,19.43403 31.8988,8.5482 31.9795,9.7566 0.3106,4.6528 -35.627,-5.7417 -76.8534,-11.3406 -111.2853,-15.1134 -13.7594,-1.50765 -14.5366,-1.49702 -16.6818,0.22819 -10.3983,8.36271 -21.8864,18.66701 -21.8864,19.63101 0,0.7513 3.0813,1.4602 8.5,1.9556 17.5181,1.6016 57.758,6.917 77.5682,10.2463 51.486,8.6526 91.1042,19.9735 110.8728,31.6819 44.1672,26.159 1.6265,54.6659 -109.3871,73.3012 -47.1147,7.9089 -107.7424,13.9826 -174.5539,17.4868 -23.8309,1.2499 -99.2299,3.0556 -115.5,2.766 -6.325,-0.1126 -18.7,-0.3092 -27.5,-0.4368 z M 1193.409,972.7331 c 2.9348,-4.4791 8.6472,-19.9015 7.7163,-20.83245 -1.1027,-1.1027 -39.7613,-3.44195 -72.8506,-4.40822 l -24.1376,-0.70487 -0.5532,2.90007 c -1.3081,6.85684 -2.957,20.44797 -2.5323,20.87277 0.2546,0.2545 13.8954,0.9636 30.3128,1.5757 16.4175,0.6121 35.2945,1.4606 41.9489,1.8856 19.4873,1.2447 18.3897,1.315 20.0957,-1.2886 z"
       id="path6" />
    <path
       style="fill:#a6dcb6"
       d="m 1627.3878,1817.8509 c -0.2595,-0.6948 -0.5852,-17.2382 -0.7237,-36.7632 l -0.2518,-35.5 -37.9122,-0.2622 c -25.9526,-0.1795 -38.3342,-0.6124 -39.25,-1.3724 -0.9099,-0.7552 -1.3378,-3.6301 -1.3378,-8.9878 0,-7.2432 -0.1631,-7.8776 -2.0248,-7.8776 -1.1137,0 -10.2262,2.4302 -20.25,5.4004 -272.4993,80.7452 -574.5122,93.5617 -836.7252,35.5078 -102.67428,-22.7321 -203.25534,-57.3273 -286.39749,-98.5076 -20.90968,-10.3565 -21.62526,-11.5699 -2.60251,-4.413 302.05542,113.6422 655.3778,136.3149 1011.5,64.9081 46.644,-9.3527 128.8432,-28.8683 134.6244,-31.9623 1.6119,-0.8626 1.8778,-2.2291 1.8909,-9.7186 0.01,-4.7931 0.3595,-9.2562 0.7801,-9.9179 0.5677,-0.8932 10.315,-1.2796 37.8324,-1.5 29.6135,-0.2372 37.4,-0.5729 38.72,-1.6693 1.4768,-1.2268 1.6522,-4.972 1.6522,-35.2814 0,-27.9419 -0.2433,-34.0023 -1.3828,-34.4396 -0.7606,-0.2919 -9.1981,2.3699 -18.75,5.9151 -88.973,33.0217 -180.5237,51.9728 -283.3672,58.6571 -25.6596,1.6678 -65.1592,2.4401 -64,1.2513 0.55,-0.564 4.5268,-2.4799 8.8374,-4.2575 42.0441,-17.3383 80.1765,-48.7651 104.0133,-85.7226 l 5.966,-9.25 17.0917,-0.015 c 78.6099,-0.071 159.7201,-17.9874 246.5916,-54.4692 30.6275,-12.862 53.2761,-23.4006 98.4056,-45.7891 23.048,-11.4341 42.3391,-20.6446 42.8691,-20.468 1.7364,0.5788 -27.882,23.8449 -48.2747,37.9214 -60.5761,41.8136 -140.7339,77.2433 -237.4309,104.9443 -35.6451,10.2112 -34.8827,9.9625 -33.8123,11.0329 1.1044,1.1044 13.6966,0.1155 41.2432,-3.2388 52.3434,-6.3738 114.2536,-19.6834 193,-41.4917 17.325,-4.798 32.85,-8.9125 34.5,-9.1434 l 3,-0.4198 -2.5,2.0468 c -3.9939,3.2698 -63.9299,33.0642 -81.7565,40.6415 -8.941,3.8004 -16.1038,7.3686 -15.9173,7.9292 0.2155,0.6479 11.4247,1.2016 30.7565,1.5194 l 30.4173,0.5 0.2691,22.25 0.2692,22.25 h 2.3136 c 3.2526,0 44.9156,-21.1099 58.1481,-29.4626 45.4274,-28.675 72.5995,-57.5623 83.1317,-88.3794 13.8805,-40.6143 -3.1815,-79.0305 -50.6317,-114.0008 -6.325,-4.6614 -11.95,-8.9021 -12.5,-9.4237 -2.4167,-2.292 9.9199,4.6621 19.5,10.9919 27.2915,18.0323 47.955,39.666 57.0534,59.7321 6.5096,14.3566 8.7007,33.6047 5.5287,48.567 -9.662,45.5743 -58.5294,92.0016 -141.0821,134.0374 -19.9777,10.1726 -21,10.833 -21,13.5656 v 2.8725 l 38.7633,0.2618 38.7633,0.2617 -0.2633,33.7383 -0.2633,33.7382 -38.5,0.5 -38.5,0.5 -0.5,36.5 -0.5,36.5 -34.2763,0.2632 c -26.8887,0.2064 -34.3781,-0.01 -34.7482,-1 z M 566.4123,1700.3602 c -8.34388,-2.0671 -59.67707,-17.9525 -80.08611,-24.7832 -117.61128,-39.3631 -173.75834,-75.4217 -179.37684,-115.1988 -0.66441,-4.7038 -0.68067,-8.0977 -0.0468,-9.7649 0.86459,-2.274 1.38648,-2.4958 4.74064,-2.0148 2.07301,0.2973 12.70773,1.4051 23.63273,2.4618 10.925,1.0567 20.02455,2.0823 20.22123,2.2789 0.19669,0.1967 -0.62588,2.3454 -1.82791,4.775 -5.1462,10.4013 -1.60121,20.9742 11.66644,34.7949 26.42667,27.5283 84.61634,58.8274 181.06381,97.3908 23.93542,9.5704 29.66886,12.4525 20.0128,10.0603 z m 479.5,-7.2735 c -115.45483,-7.8599 -217.75423,-43.4283 -277.31296,-96.4185 -10.63492,-9.462 -26.68704,-28.5291 -26.68704,-31.6994 0,-0.4619 3.4875,1.9753 7.75,5.4161 38.68526,31.2274 116.31269,52.6894 223.75,61.8612 22.28547,1.9024 73.2585,1.5986 93,-0.5545 51.808,-5.6502 94.1714,-17.7314 135.532,-38.6508 78.7707,-39.8408 140.622,-107.2912 191.449,-208.78 38.8627,-77.5991 71.101,-171.247 94.5562,-274.6731 3.0274,-13.3495 4.8601,-19.1094 4.9318,-15.5 0.046,2.3402 -5.6689,69.2987 -7.9475,93.1094 -10.4393,109.0885 -29.3068,194.8754 -58.9078,267.8421 -4.5902,11.3148 -6.7015,17.6852 -6.0042,18.1162 1.2129,0.7496 10.2678,-0.8444 22.8905,-4.0296 94.7763,-23.9157 187.3516,-82.098 228.8665,-143.8395 25.1773,-37.444 33.5847,-74.2869 26.5161,-116.1986 -4.651,-27.5776 -14.2667,-48.0274 -29.8583,-63.5 -11.7701,-11.6803 -23.7091,-18.1011 -39.1519,-21.0558 -43.038,-8.2345 -92.7669,19.1787 -126.1183,69.523 -3.0851,4.657 -5.7702,7.9846 -5.9668,7.3947 -0.1966,-0.5898 0.7682,-6.6501 2.144,-13.4672 2.7617,-13.6838 4.4777,-26.9012 7.5812,-58.3947 2.8592,-29.0139 3.3628,-32.1522 5.5455,-34.5641 2.8462,-3.145 18.7018,-12.7027 29.3437,-17.6883 21.8969,-10.2585 41.9177,-15.1127 65.5983,-15.9047 30.5437,-1.0215 54.6988,5.2897 76.9754,20.112 8.4503,5.6226 24.407,21.3821 27.9755,27.6296 l 1.9509,3.4155 -2.1051,-1.5 c -1.1577,-0.825 -5.7542,-4.2962 -10.2142,-7.7137 -45.9496,-35.2089 -98.1401,-35.8689 -158.3325,-2.0023 -9.4902,5.3396 -12.5556,7.716 -9.9532,7.716 0.4383,0 6.1758,-1.8209 12.75,-4.0465 26.5714,-8.9953 49.0367,-13.1083 71.9532,-13.1735 53.2447,-0.1515 91.2668,23.4504 116.3446,72.22 7.6151,14.8094 10.7668,22.9173 14.2141,36.5671 6.5632,25.9873 5.6737,50.6354 -3.085,85.485 -11.8141,47.0071 -34.4684,86.2877 -70.9737,123.0622 -31.0631,31.2923 -62.7752,53.2534 -113.0529,78.2912 -44.0923,21.9575 -95.2888,40.6532 -160.231,58.5123 -11.9563,3.288 -22.1964,6.261 -22.7558,6.6067 -0.5593,0.3457 -6.9384,8.5816 -14.1757,18.302 -17.7386,23.8245 -28.0276,36.2734 -37.0637,44.8442 -38.0588,36.099 -100.0266,62.745 -169.2209,72.7644 -31.3678,4.5421 -82.4064,6.6127 -112.5,4.5639 z M 275.64166,1563.9034 c -9.27112,-12.4323 -11.95979,-19.7947 -11.98387,-32.8157 -0.0205,-11.0872 2.68699,-19.8541 9.63907,-31.2111 24.10531,-39.3788 92.45861,-82.2422 196.61544,-123.2947 56.26378,-22.1759 124.19261,-43.2467 157.30408,-48.794 4.84224,-0.8113 9.06277,-1.7337 9.37894,-2.0499 0.31618,-0.3162 -1.05614,-8.3543 -3.04959,-17.8626 -6.52193,-31.1079 -10.71626,-59.9798 -14.20603,-97.7877 -3.69826,-40.0667 -2.5148,-157 1.58896,-157 0.40755,0 1.3367,1.4381 2.06477,3.1959 2.08771,5.0401 13.48672,16.3927 22.33332,22.2423 41.74467,27.6026 137.57441,50.8187 289.08555,70.0349 15.4,1.9532 29.125,3.8292 30.5,4.1688 l 2.5,0.6176 -2.85261,0.8112 c -4.53018,1.2883 -38.17924,4.7935 -61.64739,6.4219 -11.825,0.8204 -40.175,2.1715 -63,3.0023 -47.59199,1.7323 -66.82079,2.9086 -82.81726,5.0664 -16.85568,2.2736 -33.06827,6.6982 -43.9615,11.9974 -7.96872,3.8766 -10.92791,6.0393 -18.17896,13.2858 -9.07133,9.0657 -13.72438,16.5444 -17.82877,28.6555 -14.26331,42.0878 -7.04209,116.537 24.3899,251.4549 3.00538,12.9002 5.32136,24.1502 5.14662,25 -0.44022,2.141 -7.18622,-9.616 -18.23357,-31.7775 -13.74908,-27.5813 -25.0221,-54.84 -33.98497,-82.1774 -2.07373,-6.325 -4.30687,-12.0741 -4.96254,-12.7759 -1.4504,-1.5523 -7.16786,-0.4556 -35.06895,6.7265 -72.8057,18.7413 -147.84389,49.3791 -217,88.6005 -10.45,5.9266 -21.025,11.9173 -23.5,13.3126 -13.12078,7.3968 14.31554,-13.8131 39.5,-30.536 50.73113,-33.6861 109.20304,-61.9588 169,-81.7157 15.39632,-5.087 13.1213,-6.3104 -3.81878,-2.0536 -30.11072,7.5664 -82.62281,24.0865 -115.36966,36.2949 -101.25905,37.7506 -163.39672,77.0907 -182.28808,115.4088 -7.32048,14.8484 -8.4361,26.7161 -3.8939,41.422 1.10576,3.5801 1.79941,6.7202 1.54144,6.9782 -0.25798,0.258 -1.58172,-1.023 -2.94166,-2.8466 z M 1603.4346,1369.5627 c -17.4439,-13.5455 -43.8994,-26.2112 -88.9209,-42.5714 -10.3942,-3.7771 -19.1692,-7.1602 -19.5,-7.5181 -2.7627,-2.9887 75.8259,11.8254 111.0327,20.93 23.2257,6.0062 27.8656,7.584 27.8688,9.4768 0,1.7042 -22.0931,24.2077 -23.7693,24.2077 -0.4862,0 -3.5063,-2.0363 -6.7113,-4.525 z m -601.0223,-255.155 c -173.005,-3.6035 -318.41661,-27.912 -349.39864,-58.4092 -17.69668,-17.4197 0.43665,-34.6803 52.3958,-49.8741 62.70946,-18.3373 178.86539,-31.8803 288.00284,-33.5791 37.5009,-0.5838 48.1901,-1.1472 49.0799,-2.5868 1.1025,-1.784 -12.9767,-18.46376 -18.8131,-22.28793 -2.1868,-1.43286 -5.2573,-1.49324 -29.35454,-0.57719 -77.09839,2.93086 -150.83301,10.01316 -213.62005,20.51842 -67.85904,11.354 -117.38975,26.9996 -144.36154,45.6006 -3.88813,2.6814 -7.37563,4.8753 -7.75,4.8753 -2.80191,0 2.97225,-11.375 9.26825,-18.2583 24.33291,-26.6028 85.73549,-44.62823 201.55108,-59.16755 44.53407,-5.59074 116.45373,-11.52082 140.5,-11.58482 8.10223,-0.0216 11.68728,-1.20747 9,-2.97713 -3.12654,-2.05894 -18.86365,-7.643 -60.59992,-21.50293 -50.45802,-16.75629 -75.2893,-26.35344 -99.40008,-38.41759 -26.54096,-13.28012 -42.25567,-23.3445 -63.60863,-40.73772 -41.62994,-33.91 -73.20551,-80.44639 -83.76236,-123.44983 -12.43757,-50.66457 1.74306,-93.82537 40.87099,-124.39676 16.48077,-12.87674 20.05745,-14.68719 81,-41.00075 71.69566,-30.95649 90.16316,-39.28247 122,-55.00309 58.22843,-28.75243 89.9952,-49.60759 120.3389,-79.00353 44.0634,-42.68711 69.5133,-94.10812 84.0963,-169.91509 1.6839,-8.7533 3.2463,-16.09971 3.4719,-16.32536 0.8253,-0.82532 1.5347,3.59577 3.2478,20.24045 2.3995,23.31396 2.4044,75.05742 0.01,95 -8.2016,68.2833 -30.3044,118.88149 -72.6058,166.2106 -15.9721,17.87042 -33.3746,32.92342 -82.47275,71.33784 -33.49604,26.20733 -49.19872,44.43221 -54.93667,63.76068 -7.11273,23.95946 2.0741,53.85529 27.48767,89.45058 20.64829,28.92086 44.52653,54.68893 103.55695,111.7529 17.1985,16.62555 22.2805,22.17942 26.9605,29.46367 10.4408,16.25064 16.3274,33.11479 18.6812,53.51797 l 1.2106,10.49424 4.9772,0.66696 c 2.7374,0.36683 15.5521,1.18356 28.4771,1.81495 12.925,0.6314 33.4,1.99613 45.5,3.03273 14.5797,1.24903 22.3373,1.54951 23,0.89085 1.7798,-1.7689 1.1715,-26.51538 -0.8701,-35.39397 -3.8054,-16.54956 -11.8358,-33.5859 -22.6188,-47.9852 -3.0966,-4.13512 -13.0747,-15.73009 -22.1736,-25.7666 -20.8861,-23.03855 -27.081,-30.22972 -39.3682,-45.69996 -44.476,-55.99753 -60.7469,-102.65917 -51.9358,-148.94146 2.3222,-12.19799 7.7629,-28.02589 13.9582,-40.60678 7.1192,-14.45694 24.0572,-40.49865 26.3423,-40.50055 0.3663,-3.1e-4 0.512,11.07625 0.3238,24.61458 -0.2052,14.75855 0.1272,28.67364 0.8301,34.75055 6.9082,59.72181 33.8742,99.79409 96.8882,143.97891 6.8069,4.77291 17.6069,11.89654 24,15.83028 31.3386,19.28285 44.2004,28.87632 57.8961,43.18386 18.7197,19.55592 27.4487,38.82182 27.4758,60.64237 0.026,21.21142 -7.7208,40.73098 -24.8952,62.72535 -3.5926,4.60084 -6.307,8.95156 -6.032,9.66826 0.2896,0.75477 3.7988,1.81724 8.3396,2.52497 35.8131,5.58185 126.1285,26.52712 120.079,27.84782 -0.9684,0.2114 -4.7934,-0.091 -8.5,-0.6719 -48.6653,-7.6275 -67.9279,-10.319 -104.2394,-14.56521 -30.1997,-3.53151 -28.6558,-3.66331 -36.2122,3.09151 -3.4583,3.0914 -8.8875,7.6674 -12.0649,10.1688 -3.1774,2.5014 -5.6153,5.0345 -5.4177,5.6292 0.4317,1.2988 4.3737,1.9521 24.6948,4.0924 53.7068,5.6567 107.6817,15.8704 140.8952,26.6616 33.2082,10.7896 49.1048,21.7595 49.1048,33.8862 0,19.3571 -44.322,37.8568 -123.0986,51.3806 -89.2063,15.3144 -211.2816,22.5073 -337.4014,19.8804 z m 193.9641,-146.57 c 4.2806,-9.30831 6.1413,-15.56591 4.9538,-16.65962 -1.019,-0.9385 -29.0641,-2.60024 -69.3763,-4.1107 -20.9719,-0.7858 -26.6981,-0.73096 -27.614,0.26447 -1.3061,1.41938 -4.8661,22.23725 -4.0333,23.58485 0.2971,0.4807 12.1425,1.2253 26.323,1.6547 14.1805,0.4293 30.9577,1.0981 37.2827,1.4862 6.325,0.3881 15.4668,0.7786 20.3151,0.8678 l 8.815,0.1623 z"
       id="path5" />
    <path
       style="fill:#82d09a"
       d="m 1194.1099,975.3377 c 1.6647,-1.9325 8.2297,-17.225 9.1807,-21.38558 0.3699,-1.61847 0.097,-3.0549 -0.7069,-3.72215 -2.9209,-2.42417 -98.6533,-6.59855 -100.0356,-4.36202 -1.2492,2.02126 -3.9792,25.27635 -3.0736,26.18195 0.5405,0.5405 14.5923,1.478 31.4573,2.0987 16.7643,0.6171 35.8805,1.4648 42.4805,1.8839 19.0393,1.209 19.0581,1.2083 20.6976,-0.6948 z"
       id="path48" />
    <path
       style="fill:#82d09a;filter:url(#filter58)"
       d="m 529.4123,1687.9981 c -150.90382,-46.5007 -217.80838,-86.0146 -221.23262,-130.6604 -0.66385,-8.6554 -3.41494,-8.0468 23.73262,-5.25 10.67725,1.1 19.96992,2 20.65036,2 0.86451,0 0.61455,1.4075 -0.82981,4.6728 -4.58545,10.3661 -0.68055,21.2061 12.67945,35.1982 24.95058,26.1309 80.49699,56.5748 169,92.6253 20.63495,8.4054 19.72833,8.7259 -4,1.4141 z"
       id="path43" />
    <g
       id="g58">
      <path
         style="fill:#92d5a7"
         d="m 1627.3878,1817.8509 c -0.2595,-0.6948 -0.5852,-17.2382 -0.7237,-36.7632 l -0.2518,-35.5 -37.9122,-0.2622 c -25.9526,-0.1795 -38.3342,-0.6124 -39.25,-1.3724 -0.9223,-0.7654 -1.3378,-3.7126 -1.3378,-9.4878 0,-6.3061 -0.329,-8.3776 -1.3306,-8.3776 -0.7319,0 -7.3694,1.8149 -14.75,4.0331 -117.4192,35.2899 -249.7604,59.5042 -373.9194,68.4158 -50.9002,3.6533 -62.7572,4.029 -127.5,4.04 -77.12292,0.013 -106.14058,-1.3442 -171.5,-8.0215 -163.43369,-16.6966 -316.89658,-58.4425 -449.25192,-122.208 -8.66355,-4.1739 -15.55719,-7.7836 -15.31919,-8.0216 0.238,-0.238 9.35136,2.8047 20.25192,6.7617 115.60337,41.9642 235.99685,70.56 363.81919,86.4143 42.12914,5.2255 77.50973,8.3355 132.5,11.6472 28.37085,1.7085 130.5437,2.347 166,1.0373 129.9445,-4.8 253.243,-20.837 382,-49.6853 24.0789,-5.3949 82.338,-19.8417 86.75,-21.5118 2.1021,-0.7957 2.25,-1.4395 2.25,-9.7947 0,-4.9186 0.2731,-9.6547 0.607,-10.5247 0.5383,-1.4029 4.7867,-1.5818 37.5657,-1.5818 23.5643,0 37.6598,-0.3752 38.893,-1.0352 1.8566,-0.9936 1.9343,-2.4604 1.9343,-36.5 0,-25.8756 -0.3082,-35.4648 -1.1398,-35.4648 -0.6268,0 -6.5893,2.0809 -13.25,4.6243 -98.7411,37.7044 -215.0036,59.9533 -323.6102,61.9286 -26.3116,0.4785 -27.3487,0.4273 -24,-1.185 24.4975,-11.7943 31.222,-15.3808 41.5,-22.134 6.6,-4.3366 15.6,-10.7449 20,-14.2406 16.8874,-13.4169 35.4098,-34.0424 46.9951,-52.3308 l 4.6539,-7.3467 23.6755,-0.6493 c 89.5062,-2.4546 168.2655,-21.959 267.2822,-66.191 21.5948,-9.6468 72.5191,-34.2078 94.7363,-45.692 8.4387,-4.3619 15.6256,-7.6482 15.9711,-7.3028 0.3454,0.3454 0.1619,0.9411 -0.4077,1.3237 -0.5697,0.3826 -5.5066,4.3366 -10.9711,8.7867 -67.6538,55.0953 -157.7802,97.8595 -277.9353,131.8777 -14.85,4.2044 -27.7875,7.8741 -28.75,8.1551 -0.9625,0.281 -1.75,0.9306 -1.75,1.4435 0,2.8963 41.1676,-1.1289 83.221,-8.137 45.6675,-7.6104 95.2307,-19.2142 164.6358,-38.5449 12.8462,-3.5779 23.5722,-6.2899 23.8355,-6.0266 1.3223,1.3223 -52.4965,28.4653 -80.1103,40.4029 -9.8548,4.2603 -18.1027,8.3004 -18.3286,8.9779 -0.3183,0.9551 6.7421,1.2914 31.418,1.4961 l 31.8286,0.2642 0.2688,22.75 c 0.2457,20.8029 0.4169,22.7499 2,22.7492 2.7945,0 40.6436,-18.9918 54.756,-27.4733 23.0878,-13.8757 39.3717,-26.3086 54.9829,-41.9798 34.7955,-34.9292 45.5307,-71.1207 31.4996,-106.1941 -6.7003,-16.7488 -23.1372,-36.9568 -42.8573,-52.6901 -4.5924,-3.6641 -8.0462,-6.6619 -7.6751,-6.6619 1.2715,0 15.0225,9.2536 23.0251,15.4945 24.9287,19.4409 41.1613,41.6162 45.9445,62.7645 3.6202,16.0063 2.8476,28.384 -2.8016,44.8837 -14.6332,42.7396 -66.6296,88.09 -144.4525,125.9892 -14.2706,6.9496 -14.3088,6.9774 -14,10.1684 l 0.3096,3.1997 38.7633,0.2618 38.7633,0.2617 -0.2633,33.7383 -0.2633,33.7382 -38.5,0.5 -38.5,0.5 -0.5,36.5 -0.5,36.5 -34.2763,0.2632 c -26.8887,0.2064 -34.3781,-0.01 -34.7482,-1 z M 558.4123,1697.357 c -1.1,-0.2742 -12.35,-3.6244 -25,-7.4447 -108.81622,-32.8628 -174.56926,-62.7879 -205,-93.2984 -10.46017,-10.4876 -15.62052,-18.0016 -18.77033,-27.3317 -2.28912,-6.7806 -3.45376,-18.629 -1.92407,-19.5744 0.99488,-0.6148 43.19921,2.949 45.91467,3.8772 0.89593,0.3063 0.70243,1.5581 -0.72804,4.7099 -5.15883,11.3667 -1.06221,21.9679 14.41098,37.2928 17.1101,16.9461 41.885,32.6689 85.09679,54.0049 28.78399,14.2122 39.99681,19.2148 79.97865,35.683 30.91021,12.7317 33.55605,13.9601 26.02135,12.0814 z m 500.5,-4.4139 c -105.29018,-3.8788 -210.3689,-35.9109 -273.5,-83.3735 -17.57451,-13.2128 -32.92747,-28.5243 -40.09006,-39.9819 -2.05813,-3.2923 -2.19134,-3.3621 6.52958,3.4246 38.90286,30.2746 123.25565,52.5476 227.76078,60.1393 21.4985,1.5617 75.2673,0.7049 92.7997,-1.4789 47.9944,-5.9778 87.0917,-17.1205 125,-35.6248 111.9467,-54.6449 191.6613,-165.238 254.0505,-352.4602 13.6893,-41.0798 24.7518,-80.6818 35.9813,-128.8066 2.0286,-8.6937 3.8763,-15.6186 4.1061,-15.3888 1.1664,1.1664 -7.8517,98.1294 -12.7135,136.6954 -10.6605,84.565 -28.7879,158.9651 -53.067,217.802 -3.3358,8.0839 -6.3046,16.0047 -6.5973,17.6017 l -0.5322,2.9036 5.386,-0.6365 c 7.6833,-0.908 34.2079,-7.8101 48.8861,-12.7209 41.6927,-13.949 83.973,-34.6294 118,-57.717 26.1964,-17.7745 51.1088,-39.7102 67.8386,-59.7329 20.949,-25.0724 34.8329,-52.887 40.3181,-80.7722 5.2725,-26.804 0.7806,-64.6797 -10.5893,-89.2883 -13.6078,-29.4524 -36.001,-46.7915 -65.2369,-50.5132 -33.0855,-4.2118 -73.19,14.245 -102.4363,47.1431 -7.2473,8.1522 -18.155,22.6004 -20.5311,27.1953 -0.8308,1.6066 -1.7282,2.7035 -1.9942,2.4375 -0.266,-0.266 0.6517,-6.3067 2.0395,-13.4238 1.3877,-7.1171 3.4613,-21.6787 4.6079,-32.3593 5.2909,-49.2832 6.0488,-55.9251 6.5214,-57.1569 0.8058,-2.0998 15.4942,-11.3838 27.4049,-17.3218 11.9715,-5.9681 27.2174,-11.4051 40.8271,-14.5597 11.267,-2.6116 42.1319,-3.71 54.291,-1.9321 24.9419,3.6469 48.649,14.9572 64.7614,30.8965 6.9469,6.8723 12.7564,13.9097 12.0586,14.6075 -0.219,0.219 -4.1559,-2.4411 -8.7487,-5.9114 -14.933,-11.2832 -30.2589,-18.8978 -47.7883,-23.7432 -6.7832,-1.875 -10.4802,-2.1724 -27.3437,-2.1992 -17.1643,-0.027 -20.6379,0.2502 -29,2.3168 -19.485,4.8154 -37.8233,12.2236 -56.1842,22.6969 -9.3399,5.3276 -12.6552,7.8814 -11.6006,8.936 0.275,0.2751 8.5517,-2.1863 18.3925,-5.4698 59.4047,-19.821 107.6874,-16.8067 144.3923,9.0145 26.5631,18.6866 50.3091,57.8969 57.4761,94.9068 3.8171,19.7111 3.0702,38.4918 -2.6244,65.9907 -14.97,72.2895 -58.0442,132.1249 -129.4412,179.8096 -53.4091,35.671 -128.2963,66.7883 -219.4105,91.1699 -8.525,2.2813 -16.7778,4.6425 -18.3396,5.2472 -1.9408,0.7514 -6.9891,6.6673 -15.95,18.691 -18.298,24.5523 -27.2191,35.3901 -36.3404,44.1486 -56.6696,54.416 -154.4875,83.0305 -269.37,78.7984 z M 272.90432,1559.0753 c -22.35059,-34.8304 -2.06099,-72.9244 61.00798,-114.5432 32.98076,-21.7638 79.15084,-44.7985 131.5,-65.6065 55.52826,-22.0716 117.31344,-41.6245 155.23447,-49.1263 8.92896,-1.7664 16.43363,-3.7253 16.67704,-4.3533 0.24341,-0.6279 -0.65806,-6.0112 -2.00328,-11.963 -7.52233,-33.2817 -12.99654,-72.7333 -16.56704,-119.3953 -2.51854,-32.9143 -0.95441,-135.0745 2.1177,-138.3162 0.42542,-0.4489 1.91207,1.1261 3.30366,3.5 9.20789,15.7076 36.73164,31.7337 77.23745,44.9727 51.05289,16.6861 144.23193,34.3898 244,46.3592 20.51599,2.4614 21.34024,2.8507 9.4319,4.4552 -26.01758,3.5054 -67.43405,6.3675 -115.9319,8.0113 -54.96385,1.863 -74.13826,3.2983 -94.16513,7.0486 -23.49836,4.4003 -38.14873,11.2172 -50.36782,23.4363 -11.30118,11.3011 -17.87735,24.5966 -22.04083,44.5615 -2.16053,10.3602 -3.01038,48.5985 -1.5032,67.6354 3.12821,39.5121 13.58148,97.7631 30.648,170.7865 2.43594,10.4228 4.42898,19.6354 4.42898,20.4725 0,2.4892 -2.24508,-1.3165 -12.42655,-21.0646 -15.22399,-29.5287 -25.09253,-52.6265 -36.46945,-85.3584 -6.18425,-17.7924 -6.77109,-19.0194 -9.23281,-19.3047 -5.94227,-0.6888 -55.2319,12.2591 -86.87119,22.8203 -61.4514,20.5125 -126.37911,50.2349 -182,83.3155 -6.48623,3.8577 -1.34293,-0.9125 10.06354,-9.3334 16.19785,-11.9583 43.36571,-29.5956 62.27421,-40.4282 40.41479,-23.1534 80.30476,-40.9188 129.1549,-57.5205 20.51962,-6.9735 25.26713,-9.049 20.69912,-9.049 -5.45693,0 -47.62956,11.3271 -78.69177,21.1357 -140.27446,44.295 -226.1358,94.0063 -244.78497,141.7234 -3.94058,10.0827 -4.82928,23.1211 -2.23036,32.7223 0.96862,3.5784 1.53871,6.7286 1.26687,7.0004 -0.27184,0.2718 -1.96362,-1.7956 -3.75952,-4.5942 z M 1606.8615,1371.5265 c -2.7386,-3.2998 -21.0552,-14.6134 -34.4492,-21.2781 -13.7628,-6.8483 -42.8134,-18.7549 -61.5,-25.2063 -9.445,-3.2608 -12.8252,-4.9544 -9.8883,-4.9544 2.4985,0 45.1732,7.6551 63.3883,11.3708 29.6711,6.0526 66.8167,15.5916 68.9675,17.7109 1.1596,1.1426 -21.4244,23.9183 -23.7169,23.9183 -0.8281,0 -2.0888,-0.7025 -2.8014,-1.5612 z M 984.9123,1113.4876 c -61.27327,-2.6427 -82.21108,-3.8951 -116,-6.9388 -73.49691,-6.6205 -140.17202,-18.3027 -177.26455,-31.0585 -13.47704,-4.6347 -29.12313,-12.2701 -35.54502,-17.3463 -13.23282,-10.46 -11.91365,-22.1035 3.67863,-32.4692 43.42071,-28.8661 179.48408,-49.5316 350.38944,-53.2178 22.9357,-0.4947 32.0381,-1.0217 32.7647,-1.8972 1.2814,-1.544 -5.3748,-10.62186 -13.8458,-18.88331 l -6.0612,-5.91122 -23.80811,0.63586 C 911.834,948.73501 804.20235,960.5009 740.4123,974.6932 c -48.76085,10.8484 -82.88254,23.2983 -104.29791,38.0548 -6.77751,4.6702 -7.20209,4.8664 -7.20209,3.3288 0,-2.8635 5.04509,-11.0331 10.24825,-16.5953 19.89549,-21.2684 65.46038,-37.2749 141.75175,-49.79598 39.76498,-6.52632 85.43115,-12.10909 127,-15.52596 22.15722,-1.82127 34.07033,-2.59492 71.30368,-4.63054 10.10449,-0.55243 11.75905,-0.8771 11.49362,-2.25535 -0.43379,-2.25248 -10.25329,-5.92008 -61.7973,-23.08139 -51.93014,-17.28987 -74.51093,-26.03321 -100,-38.72027 -29.35733,-14.61247 -49.01539,-27.70929 -72.01191,-47.9766 -42.95225,-37.85473 -72.06758,-87.42734 -78.06028,-132.90771 -1.67646,-12.72313 -0.67718,-33.7474 2.11508,-44.5 2.92106,-11.24864 8.47958,-23.98277 14.44626,-33.09528 6.7512,-10.31064 24.85266,-28.03502 36.46662,-35.70697 12.69002,-8.38277 21.48891,-12.5487 77.04423,-36.47741 65.94229,-28.40258 87.28926,-38.05184 119,-53.79042 41.79994,-20.74602 68.81557,-36.98794 94,-56.51321 13.469,-10.44243 37.8112,-34.28656 47.3863,-46.41671 29.269,-37.07953 48.448,-81.85695 60.1783,-140.49918 1.9802,-9.89955 3.7343,-18.13303 3.8979,-18.29663 0.4913,-0.4913 1.3794,5.59033 2.7449,18.79581 0.8101,7.83344 1.2803,25.93971 1.2597,48.5 -0.029,31.84273 -0.2928,37.83482 -2.2827,51.88868 -7.1234,50.30988 -20.8373,88.45219 -44.6237,124.11132 -22.323,33.46541 -45.2415,56.24785 -97.0607,96.48446 -41.03206,31.86059 -53.88292,44.64151 -62.85763,62.51554 -14.34844,28.57633 -5.78899,62.57364 26.76535,106.30939 18.78992,25.24368 48.28068,57.22091 82.07058,88.99027 12.6619,11.90478 25.6907,24.35749 28.9528,27.6727 19.4013,19.71732 32.4484,47.43449 34.2454,72.75114 0.3438,4.84371 1.1198,9.43237 1.7243,10.19701 0.8392,1.06143 8.0767,1.76436 30.5992,2.9719 16.225,0.8699 38.8242,2.35075 50.2205,3.29078 11.3963,0.94003 21.0321,1.39755 21.4129,1.01673 1.2482,-1.24815 1.9495,-15.69081 1.1853,-24.40741 -1.5202,-17.33843 -8.0628,-35.5159 -18.6726,-51.87857 -6.7553,-10.41828 -11.3056,-15.96659 -28.5146,-34.76862 -56.0367,-61.22401 -81.14,-100.98368 -90.3785,-143.14532 -2.4967,-11.39382 -2.4563,-39.7357 0.073,-51.47606 2.9751,-13.808 7.2069,-25.70367 14.122,-39.69763 6.0572,-12.25763 20.5371,-35.40941 23.8831,-38.18631 1.2859,-1.06718 1.4007,1.31045 0.9241,19.13192 -2.4361,91.0824 28.7017,140.38185 127.2446,201.46232 28.4028,17.60511 42.659,28.5773 55.6455,42.82742 10.4214,11.43533 18.2172,24.96711 22.4328,38.93834 2.7975,9.27147 2.5994,28.56007 -0.4005,39 -4.3104,15.00034 -13.6633,31.99196 -24.8293,45.10781 -5.2651,6.1845 -5.503,8.10304 -1.0985,8.86043 18.502,3.18161 45.3498,8.26804 58.75,11.13042 20.4869,4.37614 59.9805,14.27944 62,15.54694 1.0619,0.6665 0.6239,0.7923 -1.5,0.4307 -25.7313,-4.3801 -81.689,-12.072 -114.1464,-15.69047 l -20.1464,-2.24602 -3.4877,2.9301 c -17.8708,15.01379 -22.2628,18.92139 -22.5359,20.05059 -0.4134,1.7085 0.7452,1.9175 24.3164,4.387 92.1091,9.6502 164.451,28.2462 183.9767,47.2926 8.8076,8.5915 9.1783,15.7794 1.2569,24.3731 -16.9002,18.3346 -77.0434,35.1564 -165.2336,46.2153 -39.0247,4.8937 -77.9849,8.2091 -131.5,11.1905 -17.9992,1.0028 -157.8939,2.0587 -175,1.3209 z m 209.4428,-139.6723 c 3.0008,-4.5797 8.9578,-21.72703 7.9115,-22.7733 -1.5967,-1.59666 -59.5149,-4.94595 -85.6257,-4.95156 -12.3253,-0.003 -12.8014,0.0759 -13.6279,2.24726 -1.6088,4.22681 -4.0037,22.2273 -3.0813,23.1597 0.495,0.5003 12.9563,1.2933 27.6918,1.7621 14.7356,0.4689 33.0912,1.2314 40.7903,1.6945 24.0304,1.4455 24.2545,1.4357 25.9413,-1.1387 z"
         id="path4" />
      <path
         style="fill:#82d09a;filter:url(#filter54)"
         d="m 1018.4123,1113.4132 c -132.00452,-1.8901 -259.56331,-16.7619 -324,-37.7746 -15.51759,-5.0603 -33.86757,-14.2713 -39.77887,-19.9676 -9.55199,-9.2045 -9.20246,-16.4698 1.24419,-25.8622 32.99821,-29.6682 179.75995,-53.161 352.29658,-56.3937 27.5654,-0.5164 34.9968,-0.9342 35.8964,-2.0181 1.5372,-1.8522 -3.9701,-9.7896 -13.3145,-19.18978 l -7.0773,-7.11952 h -9.9481 c -22.52864,0 -84.41306,3.58075 -121.8184,7.04865 -111.30758,10.31945 -189.4122,26.37095 -235.59846,48.41835 -7.20416,3.439 -15.90134,8.1561 -19.32707,10.4824 -3.42574,2.3264 -6.40598,4.0524 -6.62277,3.8356 -0.94483,-0.9448 4.25329,-9.3961 8.93922,-14.5337 13.7372,-15.0614 42.15841,-27.8741 85.92067,-38.7342 51.34368,-12.74155 145.00595,-25.11262 223.68841,-29.54512 46.38676,-2.61315 43.4501,-2.33135 43.80831,-4.20372 0.49591,-2.5921 -6.37903,-5.31804 -50.30831,-19.94739 C 873.08683,884.82175 856.6896,878.56832 828.68816,864.53742 768.71465,834.48602 723.9802,792.23446 697.98401,741.0877 684.59109,714.7375 678.833,692.6444 678.84824,667.66596 c 0.0228,-37.37893 15.18085,-66.86079 46.56406,-90.5654 14.26861,-10.77748 22.68653,-15.05558 69.21443,-35.17578 93.19165,-40.29914 105.25872,-45.75088 139.28557,-62.92726 40.40281,-20.39491 67.5641,-37.11768 91.4702,-56.31666 55.5498,-44.61223 87.3834,-99.97788 104.0899,-181.03589 1.9206,-9.31851 3.6425,-17.09317 3.8263,-17.27704 0.5429,-0.54291 1.4235,7.21679 2.6626,23.46402 1.5917,20.86863 0.748,72.77661 -1.4507,89.25575 -8.6338,64.71025 -30.2614,113.19759 -71.0056,159.18872 -15.6151,17.62604 -31.0867,31.01319 -84.14827,72.81128 -17.8163,14.03441 -33.45676,28.57047 -40.27734,37.43331 -26.14446,33.97281 -20.51389,70.91985 18.81129,123.43709 19.6907,26.29616 51.29092,59.95289 96.43092,102.70642 24.5496,23.25179 32.6437,34.00242 40.0618,53.21035 4.1519,10.75048 6.2215,19.63175 7.4883,32.13413 0.5307,5.23794 1.5288,9.95407 2.2476,10.62114 0.8534,0.79192 9.6224,1.59735 25.793,2.36907 13.475,0.64307 33.05,1.87248 43.5,2.73201 10.45,0.85954 22.3392,1.62887 26.4205,1.70963 l 7.4205,0.14685 0.9376,-3.5 c 1.5262,-5.69698 0.2145,-28.43259 -2.1537,-37.33017 -6.4913,-24.38842 -16.365,-40.384 -42.697,-69.16983 -52.3219,-57.19759 -76.4769,-92.65795 -88.2134,-129.5 -5.0124,-15.7344 -6.55,-27.74113 -5.9355,-46.35018 0.7681,-23.26322 4.6909,-37.7167 16.8681,-62.14982 3.936,-7.89741 21.1654,-35.5 22.159,-35.5 0.1223,0 0.2203,11.5875 0.2178,25.75 0,28.46204 1.2034,39.62577 6.5014,60.06784 13.2166,50.99456 47.9423,89.41939 122.4747,135.52106 45.5068,28.14804 66.7083,50.20155 75.656,78.69634 3.0475,9.70499 3.2942,29.76304 0.4917,39.96476 -3.7201,13.5419 -14.4524,32.86736 -25.3814,45.70401 -2.4924,2.92746 -4.2824,5.97397 -4.0917,6.96409 0.3844,1.99583 0.2256,1.95537 24.8254,6.32623 29.587,5.25696 88.7938,18.54527 87.6639,19.67517 -0.2164,0.2163 -6.2028,-0.5097 -13.3033,-1.6134 -28.744,-4.4681 -72.9121,-10.17913 -104.9969,-13.57635 l -6.1363,-0.64973 -6.8637,6.23898 c -3.775,3.4315 -9.6762,8.5005 -13.1137,11.2645 -6.0291,4.8477 -7.3403,6.8746 -5.2736,8.1519 0.537,0.3319 12.5745,1.9113 26.75,3.5098 77.2115,8.7067 133.4626,21.1428 164.7736,36.4284 12.598,6.1501 19.553,11.7524 21.9131,17.6509 2.5559,6.3876 1.3077,10.3692 -5.3186,16.9664 -26.5922,26.4754 -139.6295,48.1633 -291.5945,55.9466 -24.7504,1.2677 -99.6003,3.0485 -116.5,2.7718 -6.875,-0.1126 -19.7,-0.3078 -28.5,-0.4338 z"
         id="path47" />
      <path
         style="fill:#82d09a"
         d="m 1606.879,1370.5476 c -2.3435,-2.8238 -17.3189,-12.2341 -30.013,-18.8598 -14.7596,-7.7038 -34.6219,-16.2022 -55.3131,-23.6666 -8.1727,-2.9483 -14.4013,-5.5133 -13.8414,-5.6999 1.337,-0.4457 31.6364,4.8844 56.2008,9.8865 21.6395,4.4065 50.4899,11.472 62,15.1839 l 7.5,2.4187 -11.1268,11.1386 c -6.1197,6.1263 -11.8021,11.1387 -12.6275,11.1387 -0.8255,0 -2.076,-0.6931 -2.779,-1.5401 z"
         id="path46" />
      <path
         style="fill:#82d09a;filter:url(#filter56)"
         d="m 271.73169,1555.8802 c -6.57418,-11.7625 -8.48956,-24.7395 -5.41907,-36.7151 5.96044,-23.247 29.41236,-48.66 68.59968,-74.3359 54.39553,-35.6405 147.07597,-75.604 234.5,-101.1156 23.14574,-6.7542 48.23461,-12.9808 59,-14.6428 4.4,-0.6792 8.49833,-1.8516 9.1074,-2.6052 0.82626,-1.0223 0.3852,-4.735 -1.73725,-14.624 -16.28503,-75.8757 -21.77852,-164.6565 -15.26749,-246.7391 0.65335,-8.2365 0.71979,-8.4123 2.26704,-6 6.17482,9.6273 21.45853,21.6901 37.85009,29.8735 45.76251,22.8466 135.99376,43.1186 269.69571,60.5918 23.55545,3.0785 31.49561,4.4419 26.50117,4.5508 -0.77917,0.017 -4.56667,0.4403 -8.41667,0.9407 -23.70409,3.081 -61.21995,5.512 -116,7.5166 -71.2219,2.6064 -92.80422,5.3361 -114.89226,14.5313 -21.87393,9.1062 -36.88974,26.6756 -43.57063,50.9805 -11.57116,42.0955 -4.1137,114.045 25.0311,241.5 2.76688,12.1 5.21931,22.5625 5.44985,23.25 0.82262,2.4531 -0.36695,1.1833 -2.81048,-3 -13.75111,-23.542 -36.76814,-76.5557 -47.21609,-108.75 -1.51717,-4.675 -3.24139,-9.1081 -3.83161,-9.8514 -1.47841,-1.8618 -6.16051,-1.1192 -30.15988,4.7839 -69.84211,17.179 -148.00346,48.3408 -216.81501,86.4409 -17.06333,9.4478 -17.68499,9.774 -17.68499,9.2784 0,-0.6441 15.14655,-11.4878 28.54591,-20.4367 20.71119,-13.8321 45.03089,-27.8344 70.45409,-40.5646 35.17202,-17.6118 58.95337,-27.3831 102.26657,-42.0192 20.02886,-6.768 25.67523,-9.6313 18.99275,-9.6313 -6.95809,0 -62.65489,15.2531 -98.75932,27.0462 -84.14567,27.4852 -150.94826,58.7972 -189.47522,88.8115 -34.52937,26.9 -49.39137,53.6832 -43.92712,79.1621 0.60372,2.815 0.88029,5.3356 0.6146,5.6013 -0.26569,0.2657 -1.56748,-1.4572 -2.89287,-3.8286 z"
         id="path45" />
      <path
         style="fill:#82d09a;filter:url(#filter50)"
         d="m 1056.9123,1692.0069 c -125.16162,-4.7366 -249.34385,-50.382 -301.62891,-110.8693 -4.01734,-4.6475 -7.14993,-8.6044 -6.96132,-8.793 0.18861,-0.1886 4.33607,2.3547 9.21658,5.6519 31.8536,21.5195 85.26565,38.4621 152.87365,48.4923 61.46786,9.1193 118.7206,11.0392 165,5.5328 74.5791,-8.8734 139.484,-36.2749 195.1755,-82.3988 21.1235,-17.4946 48.5122,-46.5487 66.9632,-71.0351 40.2225,-53.3793 75.4635,-123.442 107.6403,-214 14.2523,-40.1114 23.096,-69.7891 35.7592,-120 4.8549,-19.25 8.8573,-33.7238 8.8944,-32.1639 0.2007,8.4446 -7.4136,88.8522 -11.4737,121.1639 -10.6949,85.1125 -28.7119,159.9703 -52.469,218 -8.2015,20.0333 -8.287,20.2833 -7.5749,22.1391 0.8057,2.0996 5.6163,1.484 24.3525,-3.1166 30.6096,-7.516 62.2186,-19.4155 95.7325,-36.0395 89.5161,-44.4027 146.7258,-104.2618 161.026,-168.483 2.5538,-11.4686 3.0852,-37.9049 1.042,-51.837 -7.3039,-49.8044 -30.157,-80.5441 -67.068,-90.2128 -9.3295,-2.4438 -26.4641,-2.9308 -36,-1.0231 -33.433,6.6885 -64.4178,27.9993 -89.0397,61.2401 -4.2095,5.683 -8.0145,10.7146 -8.4555,11.1813 -0.4411,0.4668 -0.1566,-2.2297 0.632,-5.9921 2.489,-11.8737 4.2854,-25.5362 7.3814,-56.1387 1.6535,-16.3447 3.2764,-31.1824 3.6063,-32.9725 0.6744,-3.6593 3.931,-6.5668 14.8755,-13.2809 28.8542,-17.7009 67.5485,-27.1557 98.6721,-24.1101 30.3459,2.9695 53.4438,12.9929 72.5779,31.4952 5.0875,4.9195 9.25,9.3077 9.25,9.7515 0,0.4438 -3.7125,-1.8594 -8.25,-5.1182 -38.677,-27.7775 -82.649,-31.277 -132.25,-10.5251 -17.2506,7.2173 -39.5,20.0052 -39.5,22.7027 0,1.7092 5.4192,0.405 21.449,-5.1619 48.3969,-16.8076 92.5856,-17.3119 126.3626,-1.4419 21.7041,10.1976 37.5244,24.8015 51.885,47.8956 11.7104,18.8323 20.4261,41.0632 23.7091,60.4741 6.9621,41.1637 -9.7122,104.8138 -39.1835,149.5738 -12.1245,18.4143 -21.2931,29.6598 -37.1754,45.5969 -19.1487,19.2145 -33.0623,30.6441 -55.5468,45.6298 -54.14,36.0838 -125.4356,65.8905 -217.5,90.9305 -11.275,3.0666 -21.2785,5.9843 -22.23,6.4837 -0.9514,0.4994 -7.6821,8.8845 -14.9569,18.6336 -29.6037,39.672 -41.2077,51.4771 -67.4228,68.5912 -58.8815,38.4397 -142.7841,57.2094 -239.3903,53.5535 z"
         id="path44" />
      <path
         style="fill:#82d09a;filter:url(#filter52)"
         d="m 1627.3878,1817.8509 c -0.2595,-0.6948 -0.5852,-17.2382 -0.7237,-36.7632 l -0.2518,-35.5 -37.9122,-0.2622 c -25.9526,-0.1795 -38.3342,-0.6124 -39.25,-1.3724 -0.9332,-0.7745 -1.3378,-3.7951 -1.3378,-9.9878 0,-5.3952 -0.402,-8.8776 -1.0248,-8.8776 -0.5637,0 -9.2262,2.443 -19.25,5.4288 -128.5064,38.2788 -259.0345,60.6803 -405.7252,69.6314 -28.0498,1.7117 -125.67348,2.3481 -158,1.0302 -190.96763,-7.7859 -363.33322,-45.3492 -517.31133,-112.7368 -20.94477,-9.1664 -40.82965,-18.546 -40.34507,-19.0305 0.20153,-0.2016 6.39416,1.8321 13.76141,4.5191 58.64032,21.3879 129.91346,41.904 196.39499,56.5325 98.74138,21.727 189.05998,33.738 299.5,39.8292 31.49222,1.7369 153.4069,1.738 184.5,0 134.3557,-7.5028 247.3028,-23.3226 373.5,-52.3136 14.8733,-3.4168 60.9077,-14.9617 70.5,-17.6805 l 3,-0.8503 0.2498,-8.9306 c 0.1374,-4.9118 0.4835,-9.9431 0.7691,-11.1806 l 0.5192,-2.25 h 37.781 c 28.0518,0 38.0899,-0.309 38.9809,-1.2 1.48,-1.48 1.7524,-72.8 0.2781,-72.8 -0.507,0 -9.1695,3.0944 -19.25,6.8764 -82.8708,31.0915 -171.8027,50.1812 -268.3281,57.5978 -23.6387,1.8163 -70.3985,3.7066 -71.7056,2.8987 -0.5031,-0.3109 3.3492,-2.4856 8.5606,-4.8326 39.1973,-17.6532 74.7418,-47.6763 97.4521,-82.314 l 6.0803,-9.2737 20.8063,-0.4592 c 56.731,-1.252 104.2381,-8.6855 159.8063,-25.0053 53.5182,-15.7177 104.3866,-36.9125 183.8883,-76.6186 17.5386,-8.7594 32.0592,-15.7554 32.268,-15.5465 0.5455,0.5454 -18.7513,15.5566 -34.3558,26.7256 -67.7843,48.5172 -157.7598,87.1191 -277.7928,119.1805 -3.4513,0.9219 -5.104,1.9133 -5.3541,3.2118 -0.3434,1.7833 0.263,1.8458 11.9923,1.2365 52.377,-2.7211 136.2623,-19.2119 229.3205,-45.0815 14.8315,-4.1231 27.1175,-7.3453 27.3022,-7.1606 1.0749,1.0749 -54.0261,28.5241 -75.3227,37.5229 -18.1335,7.6622 -20.827,8.9937 -19.9569,9.8655 0.3712,0.372 15.1505,0.9013 32.8429,1.1763 l 32.1681,0.5 0.2684,23.25 c 0.2333,20.2067 0.4711,23.25 1.8168,23.25 2.2552,0 36.0722,-16.5533 48.9148,-23.9436 53.3526,-30.7021 86.3161,-65.3636 96.681,-101.6614 2.9496,-10.3294 3.1671,-30.4305 0.4371,-40.395 -4.4683,-16.309 -14.4198,-32.4708 -30.1181,-48.9133 -8.5897,-8.997 -9.307,-9.9885 -5.0864,-7.0304 7.4859,5.2464 26.9004,24.2683 32.426,31.7703 23.6639,32.1277 23.9675,66.0954 0.9065,101.4126 -22.5774,34.5764 -67.9236,69.5757 -129.5483,99.9886 l -16.3022,8.0454 0.3022,3.6134 0.3022,3.6134 38.7633,0.2618 38.7633,0.2617 -0.2633,33.7383 -0.2633,33.7382 -38.5,0.5 -38.5,0.5 -0.5,36.5 -0.5,36.5 -34.2763,0.2632 c -26.8887,0.2064 -34.3781,-0.01 -34.7482,-1 z"
         id="path3" />
      <path
         style="fill:#fda304"
         d="m 1627.3879,1817.8509 c -0.2595,-0.6948 -0.5852,-17.2382 -0.7237,-36.7632 l -0.2518,-35.5 -37.9122,-0.2622 c -25.9526,-0.1795 -38.3342,-0.6124 -39.25,-1.3724 -1.0649,-0.8838 -1.3378,-7.4942 -1.3378,-32.4061 0,-17.2126 0.2731,-32.0075 0.607,-32.8775 0.5386,-1.4037 4.8514,-1.5818 38.3,-1.5818 27.9834,0 38.0021,-0.3091 38.893,-1.2 0.8886,-0.8886 1.2,-10.4758 1.2,-36.941 0,-19.6575 0.3375,-35.8816 0.75,-36.0534 0.4125,-0.1719 16.05,-0.086 34.75,0.191 l 34,0.5034 0.5,36.5 0.5,36.5 38.7633,0.2618 38.7633,0.2617 -0.2633,33.7383 -0.2633,33.7382 -38.5,0.5 -38.5,0.5 -0.5,36.5 -0.5,36.5 -34.2763,0.2632 c -26.8887,0.2064 -34.3781,-0.01 -34.7482,-1 z"
         id="path2" />
    </g>
  </g>
</svg>
