<?xml version="1.0" encoding="utf-8"?>
<svg xmlns="http://www.w3.org/2000/svg" height="128" width="128" viewBox="0 0 128 128">
  <g>
    <ellipse cy="64" cx="64" ry="64" rx="64" fill="#1B67E8" />
    <path id="path1" transform="rotate(0,64,64) translate(30,36.375) scale(2.125,2.125)  " fill="#FFFFFF" d="M5.032011,20C5.5840111,20 6.032011,20.448 6.032011,21 6.032011,21.552 5.5840111,22 5.032011,22 4.480011,22 4.032011,21.552 4.032011,21 4.032011,20.448 4.480011,20 5.032011,20z M25.250301,13.758021L26.664644,15.17202 24.835571,17 32,17 32,19 24.835537,19 26.664644,20.828014 25.250301,22.242014 22.006733,19 21.997498,19 21.997498,18.990768 21.006271,18.000017 21.997498,17.009266 21.997498,17 22.006767,17z M5.032011,12C5.5840111,12 6.032011,12.448 6.032011,13 6.032011,13.552 5.5840111,14 5.032011,14 4.480011,14 4.032011,13.552 4.032011,13 4.032011,12.448 4.480011,12 5.032011,12z M5.032011,3.9689889C5.5840111,3.9689889 6.032011,4.4169888 6.032011,4.9689889 6.032011,5.5209889 5.5840111,5.9689889 5.032011,5.9689889 4.480011,5.9689889 4.032011,5.5209889 4.032011,4.9689889 4.032011,4.4169888 4.480011,3.9689889 5.032011,3.9689889z M27.756943,3.7580214L30.999733,7 31.007757,7 31.007757,7.0080214 32,8.0000172 31.007757,8.9920111 31.007757,9 30.999767,9 27.756943,12.242013 26.342592,10.828014 28.171062,9 21.005255,9 21.005255,7 28.171028,7 26.342592,5.17202z M1.0002503,0L21.005255,0C21.557392,0,22.005505,0.44799995,22.005505,1L22.005505,4 20.005005,4 20.005005,2 2.0005007,2 2.0005007,8 18.004503,8 18.004503,10 2.0005007,10 2.0005007,16 18.004503,16 18.004503,18 2.0005007,18 2.0005007,24 20.005005,24 20.005005,22 22.005505,22 22.005505,24 22.005505,25C22.005505,25.552,21.557392,26,21.005255,26L20.005005,26 1.0002503,26C0.4481121,26,0,25.552,0,25L0,1C0,0.44799995,0.4481121,0,1.0002503,0z" />
  </g>
</svg>

