<?xml version="1.0" encoding="utf-8"?>
<svg xmlns="http://www.w3.org/2000/svg" height="128" width="128" viewBox="0 0 128 128">
  <g>
    <ellipse cy="64" cx="64" ry="64" rx="64" fill="#1B67E8" />
    <path id="path1" transform="rotate(0,64,64) translate(30,35.1212496757507) scale(2.125,2.125)  " fill="#FFFFFF" d="M3.507019,20.166L28.493011,20.166C30.429993,20.166 32,21.734998 32,23.672008 32,25.609994 30.429993,27.180001 28.493011,27.180001L3.507019,27.180001C1.5710144,27.180001 0,25.609994 0,23.672008 0,21.734998 1.5710144,20.166 3.507019,20.166z M3.507019,10.082999L28.493011,10.082999C30.429993,10.082999 32,11.653006 32,13.590992 32,15.528002 30.429993,17.098985 28.493011,17.098985L3.507019,17.098985C1.5710144,17.098985 0,15.528002 0,13.590992 0,11.653006 1.5710144,10.082999 3.507019,10.082999z M3.507019,0L28.493011,0C30.429993,-8.7618901E-08 32,1.5710131 32,3.5080233 32,5.4460097 30.429993,7.0140015 28.493011,7.0140015L3.507019,7.0140015C1.5710144,7.0140015 0,5.4460097 0,3.5080233 0,1.5710131 1.5710144,-8.7618901E-08 3.507019,0z" />
  </g>
</svg>

