<?xml version="1.0" encoding="utf-8"?>
<svg xmlns="http://www.w3.org/2000/svg" height="128" width="128" viewBox="0 0 128 128">
  <g>
    <ellipse cy="64" cx="64" ry="64" rx="64" fill="#1B67E8" />
    <path id="path1" transform="rotate(0,64,64) translate(30,30.0074392617838) scale(2.12493363230089,2.12493363230089)  " fill="#FFFFFF" d="M9.5191784,22.17627L9.4885435,22.184493C7.3428411,22.784518,5.6947575,23.554809,4.7426863,24.059756L4.6512518,24.108628 4.821104,24.337574C6.9631481,27.160454,10.154773,29.145142,13.809347,29.705128L13.899621,29.717796 13.818364,29.622218C12.498973,28.0563,10.74391,25.581257,9.6131525,22.447148z M15.449987,21.295576L15.152711,21.302794C13.464297,21.357314,11.903185,21.595738,10.513478,21.921234L10.501706,21.924126 10.628589,22.2773C11.939276,25.774922,14.057254,28.423991,15.287945,29.769404L15.365601,29.853659 15.449987,29.856876z M23.993984,21.014001C22.30499,21.014001 20.930968,22.388994 20.930968,24.076975 20.930968,25.76697 22.30499,27.141963 23.993984,27.141963 25.683985,27.141963 27.057977,25.76697 27.057977,24.076975 27.057977,22.388994 25.683985,21.014001 23.993984,21.014001z M23.993984,19.022982C26.780969,19.022982 29.048972,21.29 29.048972,24.076975 29.048972,25.078917 28.756059,26.013698 28.25141,26.800189L28.236702,26.822517 32.000998,30.585996 30.592995,31.993998 26.847199,28.248202 26.818163,28.268351C26.011241,28.814045 25.039104,29.132982 23.993984,29.132982 21.206969,29.132982 18.939972,26.864987 18.939972,24.076975 18.939972,21.29 21.206969,19.022982 23.993984,19.022982z M9.5291767,17.439002L9.546195,17.643305C9.6455984,18.71973,9.8474255,19.750584,10.121233,20.727693L10.19172,20.965615 10.298633,20.939641C11.738748,20.606353,13.359145,20.363503,15.120568,20.307998L15.449987,20.300195 15.449987,17.439002z M2.0742359,17.439002L2.1244316,17.853025C2.3863392,19.741083,3.027813,21.509388,3.9690552,23.078162L4.0897636,23.27446 4.1896839,23.219803C5.1077013,22.721573,6.6746216,21.970642,8.7334471,21.35456L9.214777,21.215872 9.1500292,20.993156C8.8655224,19.964112,8.6559877,18.875578,8.5528135,17.734957L8.5286732,17.439002z M10.099601,11.408889L10.056733,11.564773C9.6966286,12.964149,9.4769907,14.495139,9.4769907,16.147974L9.4797716,16.442973 15.449987,16.442973 15.449987,12.050177 15.165234,12.044204C13.383363,11.994373,11.783394,11.775994,10.378296,11.471078z M22.646229,11.124464L22.36096,11.203272C20.756598,11.631935,18.893193,11.962543,16.834205,12.038497L16.445984,12.049266 16.445984,16.442973 23.27587,16.442973 23.281075,16.284619C23.283669,16.166541 23.284981,16.047979 23.284981,15.928979 23.284981,14.218044 23.049645,12.637679 22.666778,11.198714z M3.8674679,8.9509802L3.7221603,9.2070704C2.6198387,11.201238 1.9919987,13.492668 1.9919987,15.928003 1.9919987,16.091255 1.9948196,16.253861 2.0004139,16.415774L2.0018234,16.442973 8.4837074,16.442973 8.4809923,16.147974C8.4809923,14.419558,8.7020969,12.823457,9.0665359,11.366585L9.1206636,11.1626 9.0279369,11.137382C6.5468493,10.44757,4.8230095,9.5336227,3.9525261,9.0032578z M27.982429,8.9380083L27.936481,8.9643097C27.195462,9.3853922,25.819669,10.090816,23.954617,10.72149L23.612404,10.834239 23.646087,10.958366C24.039229,12.465929 24.279978,14.125419 24.279978,15.928979 24.279978,16.055229 24.278603,16.181041 24.275885,16.306354L24.271449,16.442973 29.855995,16.442973 29.862419,16.251394C29.86481,16.143816 29.865997,16.036003 29.865997,15.928003 29.865997,13.406362 29.192869,11.039007 28.016859,8.9961815z M18.956326,2.32271L19.071469,2.4519367C20.450124,4.0156574,22.241797,6.5170527,23.324037,9.8563042L23.327084,9.8660212 23.538073,9.797267C25.32482,9.1999598,26.657969,8.530899,27.383144,8.1284933L27.448505,8.0919619 27.291294,7.8653526C25.395047,5.2007923,22.586093,3.2287502,19.324471,2.4092636z M15.449987,2.2781239L15.448254,2.2798157C14.189327,3.5201712,11.73454,6.3213148,10.397948,10.397768L10.384262,10.441878 10.610088,10.492621C11.959909,10.78768,13.495253,11.000019,15.199371,11.048494L15.449987,11.053843z M14.215432,2.0964088L14.156363,2.1031799C10.195582,2.608139,6.7487764,4.782011,4.5454683,7.8952732L4.4006987,8.1047001 4.4619761,8.1418877C5.2695122,8.6278343,6.9277058,9.5043468,9.3124447,10.170127L9.4001036,10.194073 9.5328979,9.7867079C10.743029,6.2390833,12.73986,3.6687136,14.116669,2.2006855z M16.445984,2.0013847L16.445984,11.052724 16.780385,11.0434C18.717496,10.971606,20.484754,10.659077,22.014834,10.253387L22.357581,10.159472 22.353336,10.146173C21.03749,6.1573763,18.653324,3.3944979,17.379386,2.1262608L17.312395,2.0601406 17.231176,2.0513172C17.016784,2.0313625,16.800999,2.016283,16.583931,2.0061932z M15.928998,0C24.711998,0 31.857997,7.1460018 31.857997,15.928003 31.857997,16.424003 31.834997,16.917003 31.790998,17.394003 31.773997,17.586003 31.752997,17.778003 31.726997,17.969004 31.648997,18.589004 31.531998,19.208004 31.381997,19.806004L29.450997,19.321004C29.581998,18.799004 29.683997,18.259003 29.752997,17.714003 29.763998,17.630003 29.773997,17.546503 29.783123,17.463003L29.785501,17.439002 16.445984,17.439002 16.445984,29.855466 16.612811,29.84938C17.295311,29.816193,17.972748,29.733505,18.634998,29.603005L19.019998,31.558005C18.009998,31.756005 16.969998,31.857006 15.928998,31.857006 7.145999,31.857006 0,24.711005 0,15.928003 0,7.1460018 7.145999,0 15.928998,0z" />
  </g>
</svg>

